<svg id="Calque_1" data-name="Calque 1" xmlns="http://www.w3.org/2000/svg" viewBox="0 0 198 90" width="198" height="90"><title>logo</title><g id="Layer_2" data-name="Layer 2"><rect width="198" height="90" fill="#e01e2b"/></g><path d="M0,3.6H198V86.4H0Z" fill="none"/><path d="M24.5,23.1H24a4.25,4.25,0,0,0-4.6,3.8V46a4.25,4.25,0,0,0,3.8,4.6h1.4a4.25,4.25,0,0,0,4.6-3.8V39.1H25.4v6.7c0,.9-.3,1.1-1,1.1s-1-.3-1-1.1V28.1c0-.9.3-1.1,1-1.1s1,.3,1,1.1v6.5h3.8V27.8a4.25,4.25,0,0,0-3.8-4.6A2.77,2.77,0,0,0,24.5,23.1Z" fill="#fff"/><path d="M51.1,47.3h-.5L46.5,21.6H42.8v43h3.7V43.3H47l4.1,25.4h3.8V28.5H51.2V47.3Z" fill="#fff"/><path d="M74.8,18.2H69.1V60.4h5.7a4.25,4.25,0,0,0,4.6-3.8V22.8a4.1,4.1,0,0,0-3.7-4.6Zm.6,37.1c0,.9-.3,1.1-1.1,1.1H73.2V22.2h1.1c.9,0,1.1.3,1.1,1.1Z" fill="#fff"/><path d="M32,18.2,30,55.5h3.7l.3-5.1h3l.4,9.7h4L39,18.2Zm2.1,28.3,1-22.8h.6l1,22.8Z" fill="#fff"/><path d="M82.6,23.3,80.8,54.5h3.5l.4-8H87l.2,3.9h3.6L89.2,23.3Zm2.2,19.3.6-13.9H86l.7,13.9Z" fill="#fff"/><path d="M58.5,23.3,56.1,71.8h3.7l.5-11.4h3.1l.1,5.1h4l-2-42.2Zm2,33.1,1.1-27.7h.6l1,27.7Z" fill="#fff"/><path d="M105.3,23.3l-.9-.3.1-1.6-1.5.5-.5-.8-2,2.8h-.2l.2-4.7-.9.3-.9-1.3-.9,1.3-.9-.3.2,4.7h-.2l-2-2.8-.5.8-1.5-.5L93,23l-1,.3,3.4,4-.8,1.1h3.2v2.2h1.6V28.4h3.2l-.8-1.1Z" fill="#fff"/><path d="M141.7,60.4h2.4l-2-10.3h-4l-2,10.3h2.4L139,58h2.3ZM139.3,56l.8-3.9.8,3.9Z" fill="#fff"/><path d="M123.2,40.7h3.9V44a3.7,3.7,0,1,1-7.4,0V39.6a3.42,3.42,0,0,1,3.4-3.3h.3a3.24,3.24,0,0,1,3.6,3.1v.1h-2.3a1.15,1.15,0,0,0-1.3-1,1.11,1.11,0,0,0-1.3,1.1v4.2a1.11,1.11,0,0,0,1.1,1.3h.2a1.16,1.16,0,0,0,1.3-1.1V42.7h-1.5Z" fill="#fff"/><path d="M174.7,40.7h3.9V44a3.72,3.72,0,0,1-7.4,0V39.6a3.42,3.42,0,0,1,3.4-3.3h.3a3.24,3.24,0,0,1,3.6,3.1v.1h-2.4a1.15,1.15,0,0,0-1.3-1,1.11,1.11,0,0,0-1.3,1.1v4.2a1.11,1.11,0,0,0,1.1,1.3h.2a1.16,1.16,0,0,0,1.3-1.1V42.7h-1.5Z" fill="#fff"/><path d="M125.5,23.3v2.1h-3.4V27h2.6v2.1h-2.6v4.4h-2.2V23.3Z" fill="#fff"/><path d="M126.5,30.7V26.3a3.7,3.7,0,0,1,7.4,0h0v4.3a3.7,3.7,0,0,1-7.4.1Zm4.9-.2V26.6a1.3,1.3,0,0,0-2.6-.2v4.2a1.3,1.3,0,0,0,2.6.2Q131.55,30.5,131.4,30.5Z" fill="#fff"/><path d="M134.1,47.1h-5.5V36.7H131V45h3.2Z" fill="#fff"/><path d="M134.8,44V39.6a3.7,3.7,0,1,1,7.4,0v4.3a3.7,3.7,0,1,1-7.4,0Zm5-.2V39.9a1.3,1.3,0,0,0-2.6,0v3.9a1.3,1.3,0,0,0,2.6,0Z" fill="#fff"/><path d="M156.9,36.7,154.7,47h-3.1l-1.7-8.4L148.2,47H145l-2.2-10.3h2.5l1.3,7.5,1.3-7.5h3.9l1.3,7.4,1.3-7.4Z" fill="#fff"/><path d="M160.1,36.7V47h-2.4V36.7Z" fill="#fff"/><path d="M170,36.7V47h-2.7l-3.2-6.1v6.2h-2.4V36.7h2.7l3.2,6.6V36.6Z" fill="#fff"/><path d="M122.3,50v3.9h2.4V50h2.4V60.3h-2.4V56h-2.4v4.3h-2.4V50.1Z" fill="#fff"/><path d="M135.2,50v2.1h-4.3v1.7h3.3v2.1h-3.3v2.4h4.3v2.2h-6.6V50.1Z" fill="#fff"/><path d="M152.8,50h7.4v2.1h-2.5v8.2h-2.4V52.1h-2.5Z" fill="#fff"/><path d="M164.4,56.8l-2-1.5a3.28,3.28,0,0,1-1.5-2.7c0-1.8,1.2-2.8,3.2-2.8a2.93,2.93,0,0,1,3.3,2.5v1.1H165V53c0-.7-.2-1.2-1-1.2a.71.71,0,0,0-.8.7c0,.5.1.6.8,1.1l2.1,1.5a2.85,2.85,0,0,1,1.4,2.5,3,3,0,0,1-2.9,3h-.5a3.17,3.17,0,0,1-3.5-2.9V56.5H163v.6c0,1,.4,1.5,1.1,1.5s1-.3,1-.8c0-.3,0-.5-.7-1Z" fill="#fff"/><path d="M147.7,55.8h1.2c2,0,3.2-1.1,3.2-2.8v-.2c0-1.7-1.2-2.8-3.1-2.8h-3.7V60.3h2.4V58.5l1.8,1.9h3.1Zm1.2-2.2h-1.4V52.1h1.4a.71.71,0,0,1,.8.7V53C149.7,53.4,149.4,53.6,148.9,53.6Z" fill="#fff"/><path d="M137.8,29h1.1c2,0,3.2-1,3.2-2.8V26c0-1.7-1.2-2.8-3.1-2.8h-3.7V33.5h2.4V31.7l1.8,1.9h3.1Zm1.2-2.1h-1.4V25.4H139a.71.71,0,0,1,.8.7v.2C139.8,26.7,139.5,26.9,139,26.9Z" fill="#fff"/></svg>