<svg width="160" height="54" viewBox="0 0 160 54" fill="none" xmlns="http://www.w3.org/2000/svg"><path d="M5.5 5.1H5A4.25 4.25 0 00.4 8.9V28a4.25 4.25 0 003.8 4.6h1.4a4.25 4.25 0 004.6-3.8v-7.7H6.4v6.7c0 .9-.3 1.1-1 1.1s-1-.3-1-1.1V10.1c0-.9.3-1.1 1-1.1s1 .3 1 1.1v6.5h3.8V9.8a4.25 4.25 0 00-3.8-4.6 2.77 2.77 0 00-.9-.1zM31.6 29.3L27.5 3.6h-3.7v43h3.7V25.3h.5l4.1 25.4h3.8V10.5h-3.7v18.8h-.6zM50.1.2v42.2h5.7a4.25 4.25 0 004.6-3.8V4.8A4.1 4.1 0 0056.7.2h-6.6zm6.3 37.1c0 .9-.3 1.1-1.1 1.1h-1.1V4.2h1.1c.9 0 1.1.3 1.1 1.1v32zM13 .2l-2 37.3h3.7l.3-5.1h3l.4 9.7h4L20 .2h-7zm2.1 28.3l1-22.8h.6l1 22.8h-2.6zM63.6 5.3l-1.8 31.2h3.5l.4-8H68l.2 3.9h3.6L70.2 5.3h-6.6zm2.2 19.3l.6-13.9h.6l.7 13.9h-1.9zM39.5 5.3l-2.4 48.5h3.7l.5-11.4h3.1l.1 5.1h4l-2-42.2h-7zm2 33.1l1.1-27.7h.6l1 27.7h-2.7zM86.3 5.3l-.9-.3.1-1.6-1.5.5-.5-.8-2 2.8h-.2l.2-4.7-.9.3-.9-1.3-.9 1.3-.9-.3.2 4.7h-.2l-2-2.8-.5.8-1.5-.5L74 5l-1 .3 3.4 4-.8 1.1h3.2v2.2h1.6v-2.2h3.2l-.8-1.1 3.5-4zM122.7 42.4h2.4l-2-10.3h-4l-2 10.3h2.4l.5-2.4h2.3l.4 2.4zm-2.4-4.4l.8-3.9.8 3.9h-1.6zM104.2 22.7h3.9V26a3.7 3.7 0 01-7.4 0v-4.4a3.42 3.42 0 013.4-3.3h.3a3.239 3.239 0 013.6 3.1v.1h-2.3a1.151 1.151 0 00-1.3-1 1.11 1.11 0 00-1.3 1.1v4.2a1.116 1.116 0 00.246.907 1.115 1.115 0 00.854.393h.2a1.158 1.158 0 001.3-1.1v-1.3h-1.5v-2zM155.7 22.7h3.9V26a3.72 3.72 0 01-7.4 0v-4.4a3.42 3.42 0 013.4-3.3h.3a3.239 3.239 0 013.6 3.1v.1h-2.4a1.151 1.151 0 00-1.3-1 1.11 1.11 0 00-1.3 1.1v4.2a1.116 1.116 0 00.246.907 1.109 1.109 0 00.854.393h.2a1.158 1.158 0 001.3-1.1v-1.3h-1.5l.1-2zM106.5 5.3v2.1h-3.4V9h2.6v2.1h-2.6v4.4h-2.2V5.3h5.6zM107.5 12.7V8.3a3.7 3.7 0 017.4 0v4.3a3.703 3.703 0 01-3.65 3.75 3.7 3.7 0 01-3.75-3.65zm4.9-.2V8.6a1.302 1.302 0 00-1.2-1.4 1.305 1.305 0 00-1.4 1.2v4.2a1.292 1.292 0 00.31.949 1.303 1.303 0 002.29-.749c.1-.2.1-.3 0-.3zM115.1 29.1h-5.5V18.7h2.4V27h3.2l-.1 2.1zM115.8 26v-4.4a3.7 3.7 0 017.4 0v4.3a3.7 3.7 0 01-7.4 0v.1zm5-.2v-3.9a1.3 1.3 0 10-2.6 0v3.9a1.3 1.3 0 102.6 0zM137.9 18.7L135.7 29h-3.1l-1.7-8.4-1.7 8.4H126l-2.2-10.3h2.5l1.3 7.5 1.3-7.5h3.9l1.3 7.4 1.3-7.4h2.5zM141.1 18.7V29h-2.4V18.7h2.4zM151 18.7V29h-2.7l-3.2-6.1v6.2h-2.4V18.7h2.7l3.2 6.6v-6.7l2.4.1zM103.3 32v3.9h2.4V32h2.4v10.3h-2.4V38h-2.4v4.3h-2.4V32.1l2.4-.1zM116.2 32v2.1h-4.3v1.7h3.3v2.1h-3.3v2.4h4.3v2.2h-6.6V32.1l6.6-.1zM133.8 32h7.4v2.1h-2.5v8.2h-2.4v-8.2h-2.5V32zM145.4 38.8l-2-1.5a3.28 3.28 0 01-1.5-2.7c0-1.8 1.2-2.8 3.2-2.8a2.93 2.93 0 013.3 2.5v1.1H146V35c0-.7-.2-1.2-1-1.2a.71.71 0 00-.8.7c0 .5.1.6.8 1.1l2.1 1.5a2.853 2.853 0 011.4 2.5 3.003 3.003 0 01-2.9 3h-.5a3.17 3.17 0 01-3.5-2.9v-1.2h2.4v.6c0 1 .4 1.5 1.1 1.5.7 0 1-.3 1-.8 0-.3 0-.5-.7-1zM128.7 37.8h1.2c2 0 3.2-1.1 3.2-2.8v-.2c0-1.7-1.2-2.8-3.1-2.8h-3.7v10.3h2.4v-1.8l1.8 1.9h3.1l-4.9-4.6zm1.2-2.2h-1.4v-1.5h1.4a.71.71 0 01.8.7v.2c0 .4-.3.6-.8.6zM118.8 11h1.1c2 0 3.2-1 3.2-2.8V8c0-1.7-1.2-2.8-3.1-2.8h-3.7v10.3h2.4v-1.8l1.8 1.9h3.1l-4.8-4.6zm1.2-2.1h-1.4V7.4h1.4a.71.71 0 01.8.7v.2c0 .4-.3.6-.8.6z" fill="#fff"/></svg>