<svg width="36" height="36" fill="none" xmlns="http://www.w3.org/2000/svg"><path d="M18 36c9.941 0 18-8.059 18-18S27.941 0 18 0 0 8.059 0 18s8.059 18 18 18z" fill="#fff"/><path d="M22.474 9.102C21.343 9 20.931 9 18.051 9s-3.291 0-4.422.102c-2.983.103-4.32 1.534-4.526 4.5C9 14.727 9 15.136 9 18s0 3.273.103 4.398c.103 2.966 1.543 4.295 4.526 4.5C14.76 27 15.17 27 18.05 27s3.292 0 4.423-.102c2.983-.102 4.32-1.534 4.423-4.5C27 21.273 27 20.864 27 18s0-3.273-.103-4.398c-.103-2.966-1.44-4.397-4.423-4.5zm-4.423 14.42c-3.085 0-5.554-2.454-5.554-5.522s2.469-5.523 5.554-5.523c3.086 0 5.555 2.455 5.555 5.523 0 2.966-2.469 5.523-5.555 5.523zm5.863-10.124c-.72 0-1.337-.614-1.337-1.33 0-.716.617-1.33 1.337-1.33s1.337.614 1.337 1.33c-.102.716-.617 1.33-1.337 1.33zm-2.263 4.5c0 2.045-1.645 3.58-3.6 3.58a3.567 3.567 0 01-3.6-3.58c0-2.046 1.646-3.58 3.6-3.58 1.955 0 3.6 1.636 3.6 3.58z" fill="#000"/></svg>