<svg width="36" height="36" fill="none" xmlns="http://www.w3.org/2000/svg"><path d="M18 36c9.941 0 18-8.059 18-18S27.941 0 18 0 0 8.059 0 18s8.059 18 18 18z" fill="#fff"/><path d="M25.796 14.646C26.006 20.062 22.016 26 14.879 26c-2.205 0-4.2-.625-5.879-1.667 1.995.209 4.094-.312 5.668-1.562-1.679 0-3.149-1.146-3.569-2.604.63.104 1.155.104 1.785-.105-1.89-.416-3.15-1.979-3.044-3.75.525.313 1.155.417 1.784.521-1.68-1.145-2.204-3.437-1.154-5.104 1.89 2.292 4.723 3.854 7.978 3.959A3.846 3.846 0 0122.227 11c1.154 0 2.099.417 2.834 1.25a9.67 9.67 0 002.414-.938c-.315.938-.945 1.667-1.68 2.084A8.763 8.763 0 0028 12.77l-2.204 1.875z" fill="#181818"/></svg>