<?xml version="1.0" encoding="utf-8"?>
<!-- Generator: Adobe Illustrator 19.1.1, SVG Export Plug-In . SVG Version: 6.00 Build 0)  -->
<svg version="1.1" id="Layer_1" xmlns="http://www.w3.org/2000/svg" xmlns:xlink="http://www.w3.org/1999/xlink" x="0px" y="0px"
	 viewBox="0 0 896 234" style="enable-background:new 0 0 896 234;" xml:space="preserve">
<style type="text/css">
	.st0{fill:#FFFFFF;}
</style>
<g>
	<path class="st0" d="M179.1,92.7l-4.3-68.4c-0.5-1.6-3.2-1.7-3.3,0c-0.3,14.8-26.3,2.3-35.6,0.2C55.5,6.1,1.2,70.6,1.2,124.3l0,0
		c-0.1,69.5,45.8,107.3,105,107.4c47,0.1,70.9-30,78.6-62.6c1-4.1-3.6-3.2-4.6,0c-14.3,45.4-49.6,56.8-67.1,56.6
		C75,225,39.6,194.3,38.4,124.3c-1.5-89.2,99.3-147.5,137.4-32.7C176.6,94.1,178.5,94.6,179.1,92.7z"/>
</g>
<path class="st0" d="M210.7,103.7c20.8-8.7,77.2-5.9,77.1,19.8l-0.1,79.1c0,21.6,21.3,29,27.3,14.5c1.9-1.9,5.2-0.5,3.6,2.7
	c-3.8,15.3-41.6,17.7-54.7-2.8c-72.6,52.7-118.7-51.3-32-52.8c27.1-4.1,30.1-19.7,30.1-30.6c0-27.1-14.2-29.6-22.7-29.6
	c-9,0-16.4,2.7-21.4,16.7C210.3,148.6,168.5,123.6,210.7,103.7z M230.4,225.5c17.2,2.2,32.6-13.4,32.6-28.7l0-37.2
	C189.4,186.6,212.3,224.4,230.4,225.5z"/>
<g>
	<path class="st0" d="M358.3,101.1l-35.3,4.6c-2.2,0.5-2.2,1.6,1.9,2.7c7.7,0.3,12.6,5.5,12.5,16.7l-0.1,82.4
		c0,9.9-13.8,18.5-16.7,19.7c-6.6,2.7,3.3,2.2,3.3,2.2l57.7,0.1c1.9,0,7.9,0.6,0.3-3c-8.8-3.3-18.3-10.4-18.3-18.9
		c0-8.5,0.1-61.9,0.1-61.9c0-26,17-40.2,33.7-40.2c17.5,0,32,3.9,32,40l-0.1,62.1c0,9-11.8,17.2-18.1,19.4c-4.1,1.1-5.8,2.5-2.2,2.5
		l61.6,0.1c3.3,0.3,4.7-0.8,1.7-1.6c-14.8-5.8-16.7-16.7-16.7-20.3l0.1-72.3c0-41.3-39.6-35.9-53.6-35.9
		c-17.5,0.3-36.1,11.2-38,16.1C363.5,102.2,361.9,100.8,358.3,101.1z"/>
</g>
<path class="st0" d="M709.3,219.7c-6,10.4-20.8,12.8-39.2,12.8c-34.8,0-63.2-26.9-63.1-63.6c0-32.6,18.4-69.2,65.2-69.2
	c42.1,0,41.8,28.2,41.8,4.7l0-41.3c0-21.3-8.5-27.6-15-29.6c-9.6-3.3-21.9-3.9-2.2-3.8l36.7-0.8c2.1,0.1,2.5,0.5,2.5,3.8l-0.2,161.4
	c0,11.2,4.1,28.5,22.1,33.4c1.6,0.3,3.6,1.4,1.6,1.9l-39.9,4.3c-5.8,0.6-8.2-2.2-10.7-13.4 M673.7,226c21.8,0,36.4-8.4,36.4-59.3
	c0.1-48.4-14.5-60.2-36.3-60.2c-21.8,0-39.5,28.2-39.6,60.7C634.2,199.6,651.9,225.9,673.7,226z"/>
<path d="M673.7,167.1"/>
<path class="st0" d="M500.9,103.9c20.8-8.7,77.2-5.9,77.2,19.8l-0.1,79.1c0,21.6,21.3,29,27.4,14.5c1.9-1.9,5.2-0.5,3.5,2.7
	c-3.8,15.3-41.6,17.7-54.7-2.8c-72.5,52.7-118.7-51.3-32-52.8c27.1-4.1,30.1-19.7,30.1-30.6c0-27.1-14.2-29.6-22.7-29.6
	c-9,0-16.4,2.7-21.4,16.7C500.6,148.7,458.7,123.8,500.9,103.9z M519.3,225.7c17.2,2.2,32.6-13.4,32.6-28.7l0-37.2
	C478.4,186.8,501.3,224.5,519.3,225.7z"/>
<path class="st0" d="M785.2,104.4c20.8-8.7,77.2-5.9,77.2,19.8l-0.1,79.1c0,21.6,21.3,29,27.3,14.5c1.9-1.9,5.2-0.5,3.6,2.7
	c-3.9,15.3-41.6,17.7-54.7-2.8c-72.6,52.7-118.7-51.3-31.9-52.8c27.1-4.1,30.1-19.7,30.1-30.6c0-27.1-14.2-29.6-22.7-29.6
	c-9,0-16.4,2.7-21.3,16.7C784.9,149.3,743,124.4,785.2,104.4z M803.7,226.2c17.2,2.2,32.6-13.4,32.6-28.7l0-37.2
	C762.6,187.3,785.6,225.1,803.7,226.2z"/>
<g>
	<g>
		<polygon class="st0" points="753.2,90.3 753.2,29 783.3,29 783.3,90.3 		"/>
		<path class="st0" d="M768.3,59.7"/>
	</g>
	<g>
		<polygon class="st0" points="850.1,90.4 850.1,29.1 880.2,29.2 880.2,90.4 		"/>
		<path class="st0" d="M865.1,59.8"/>
	</g>
	<g>
		<path class="st0" d="M812.5,41.8l4.3-8.7l4.3,8.4c0.5,0.9,0.9,0.8,1.8,0.4l3.7-1.8l-2.4,11.8c-0.5,2.3,0.8,3,2.2,1.4l5.2-5.6
			l1.4,3.2c0.4,1,1.2,0.8,2.1,0.7l5.4-1.1l-1.8,6.8l0,0.1c-0.2,0.9-0.6,1.6,0.3,2.1l1.9,1l-11.1,9.4c-1.2,1.2-0.8,1.5-0.3,2.9l1,3.2
			l-10.4-1.9c-1.3-0.3-2.2-0.3-2.2,0.7l0.4,11.9h-3.1l0.4-11.9c0-1.2-0.9-1.1-3-0.7l-9.6,1.8l1.3-3.2c0.4-1.2,0.5-2-0.4-2.8
			l-11.4-9.3l2.1-1.3c0.6-0.5,0.6-1,0.3-2l-2.1-6.9l5.5,1.2c1.5,0.3,2,0,2.3-0.9l1.5-3.1l5.4,6.1c0.9,1.1,2.3,0.4,1.9-1.2l-2.6-12.8
			l4,2.3c0.6,0.4,1.3,0.5,1.7-0.3"/>
	</g>
</g>
</svg>
