<svg width="36" height="36" fill="none" xmlns="http://www.w3.org/2000/svg"><path d="M18 36c9.941 0 18-8.059 18-18S27.941 0 18 0 0 8.059 0 18s8.059 18 18 18z" fill="#fff"/><path d="M19.942 23.409c-1.25 0-2.307-.691-2.692-1.382 0 0-.673 2.665-.77 3.158-.48 1.776-1.922 3.553-2.019 3.75-.096.099-.288.099-.288-.098 0-.198-.384-2.468 0-4.343.192-.888 1.442-6.217 1.442-6.217s-.384-.691-.384-1.777c0-1.677.961-2.96 2.115-2.96 1.058 0 1.539.79 1.539 1.677 0 1.086-.674 2.566-.962 4.047-.288 1.184.577 2.17 1.73 2.17 2.116 0 3.559-2.762 3.559-6.118 0-2.467-1.635-4.342-4.616-4.342-3.365 0-5.48 2.566-5.48 5.428 0 .987.288 1.677.769 2.27.192.296.192.394.192.592-.096.197-.192.69-.192.888-.096.296-.289.395-.577.296-1.539-.69-2.308-2.369-2.308-4.342C11 12.849 13.692 9 18.98 9 23.213 9 26 12.158 26 15.514c0 4.54-2.5 7.895-6.058 7.895z" fill="#171717"/></svg>