<?xml version="1.0" encoding="utf-8"?>
<!-- Generator: Adobe Illustrator 15.1.0, SVG Export Plug-In . SVG Version: 6.00 Build 0)  -->
<!DOCTYPE svg PUBLIC "-//W3C//DTD SVG 1.1//EN" "http://www.w3.org/Graphics/SVG/1.1/DTD/svg11.dtd">
<svg version="1.1" id="Layer_1" xmlns="http://www.w3.org/2000/svg" xmlns:xlink="http://www.w3.org/1999/xlink" x="0px" y="0px"
	 width="792px" height="612px" viewBox="0 0 792 612" enable-background="new 0 0 792 612" xml:space="preserve">
<path fill-rule="evenodd" clip-rule="evenodd" stroke="#000000" stroke-width="2.9999" stroke-linecap="round" stroke-linejoin="round" stroke-miterlimit="22.9256" d="
	M241.786,481.027c-4.599-0.918-11.293-2.21-18.545-3.766c-7.252-1.557-15.063-3.376-23.313-5.52
	c-8.25-2.144-16.941-4.61-25.133-7.399c-8.191-2.789-15.884-5.901-24.222-9.219c-8.338-3.318-17.323-6.841-24.076-9.396
	s-11.274-4.14-13.741-5.432s-2.877-2.29-3.435-3.171c-0.558-0.881-1.263-1.645-1.498-2.613s0-2.144-0.47-3.26
	c-0.47-1.115-1.644-2.172-3.2-4.021c-1.557-1.85-3.495-4.492-4.404-6.9c-0.91-2.407-0.793-4.58-1.086-6.371
	c-0.294-1.791-0.998-3.2-2.202-4.962c-1.204-1.762-2.907-3.876-4.845-5.344c-1.938-1.468-4.11-2.29-5.138-3.112
	c-1.028-0.822-0.911-1.645-0.646-3.112s0.676-3.582,0.558-5.285s-0.764-2.994-0.675-3.876c0.088-0.88,0.91-1.35,2.173-2.084
	c1.262-0.733,2.965-1.732,3.347-2.936c0.381-1.204-0.558-2.613-1.09-4.066c-0.532-1.454-0.657-2.951-0.661-4.434
	c-0.004-1.482,0.114-2.951,0.099-3.993s-0.162-1.659-1.13-2.496s-2.76-1.894-3.744-2.729c-0.983-0.837-1.16-1.454-1.6-3.113
	c-0.44-1.658-1.145-4.36-1.424-6.077c-0.279-1.718-0.132-2.451,0.22-3.406c0.353-0.954,0.91-2.128,1.835-3.743
	c0.925-1.614,2.217-3.67,3.274-5.432s1.879-3.23,3.142-4.522c1.262-1.292,2.965-2.407,3.905-3.215s1.116-1.307,1.542-2.877
	c0.426-1.571,1.101-4.214,1.424-6.107c0.323-1.894,0.293-3.039,0.279-4.39c-0.015-1.351-0.015-2.906-0.47-4.242
	c-0.455-1.336-1.366-2.452-2.231-3.656c-0.866-1.203-1.688-2.495-2.056-3.537c-0.367-1.043-0.279-1.835-0.073-2.878
	c0.206-1.042,0.528-2.334,0.808-3.376c0.279-1.042,0.514-1.834,0.632-2.833c0.118-0.998,0.118-2.202-0.044-4.448
	c-0.162-2.246-0.484-5.535-0.778-8.354c-0.294-2.818-0.558-5.167-0.631-6.782s0.043-2.496,0.22-3.626
	c0.176-1.13,0.411-2.51,0.866-3.538c0.455-1.028,1.13-1.703,1.512-2.657c0.382-0.954,0.471-2.187,0.221-3.89
	c-0.25-1.703-0.837-3.875-1.673-5.329c-0.837-1.453-1.923-2.188-2.819-2.496c-0.896-0.309-1.6-0.191-2.848,0.235
	c-1.248,0.426-3.039,1.16-4.581,1.747c-1.542,0.587-2.833,1.027-3.567,0.939c-0.734-0.088-0.91-0.705-1.306-1.365
	c-0.396-0.661-1.013-1.365-1.146-2.114c-0.132-0.749,0.22-1.542,0.191-2.408c-0.029-0.867-0.44-1.806-1.013-2.746
	c-0.573-0.939-1.307-1.879-1.806-2.598c-0.5-0.719-0.764-1.219-0.69-1.982c0.073-0.764,0.484-1.791,0.572-2.951
	c0.088-1.16-0.147-2.451-0.03-3.171c0.118-0.719,0.587-0.866,1.013-1.145s0.808-0.69,0.94-1.644
	c0.132-0.954,0.015-2.452-0.176-3.509s-0.455-1.673-0.66-2.136c-0.206-0.463-0.353-0.771-0.881-0.896
	c-0.529-0.125-1.438-0.066-2.29-0.029c-0.852,0.036-1.645,0.051-2.136-0.235c-0.492-0.286-0.682-0.874-0.947-1.453
	c-0.264-0.58-0.602-1.152-0.763-1.776c-0.162-0.624-0.147-1.299,0.389-2.283c0.536-0.984,1.593-2.275,5.41-7.487
	c3.817-5.212,10.394-14.343,15.209-20.729c4.815-6.386,7.869-10.027,13.418-16.604s13.594-16.09,20.229-23.782
	c6.636-7.692,11.862-13.564,15.297-17.514c3.436-3.949,5.079-5.976,6.269-7.385c1.189-1.409,1.923-2.202,2.643-2.554
	c0.719-0.353,1.423-0.265,1.938-0.088c0.514,0.176,0.836,0.44,1.072,1.071c0.234,0.631,0.382,1.63,1.057,2.951
	c0.675,1.321,1.879,2.965,2.525,4.082c0.646,1.115,0.734,1.703,0.763,2.701c0.029,0.998,0,2.407,0.25,3.376
	c0.25,0.969,0.778,1.498,1.762,2.158c0.984,0.661,2.422,1.454,3.538,2.1c1.116,0.646,1.909,1.145,2.232,1.659
	c0.323,0.514,0.176,1.042,0.132,1.821c-0.044,0.778,0.015,1.805,0.206,2.495c0.19,0.69,0.514,1.042,0.778,1.659
	c0.265,0.616,0.47,1.497,0.807,1.864c0.338,0.367,0.808,0.22,1.395-0.029c0.587-0.25,1.292-0.602,1.644-1.028
	c0.353-0.425,0.353-0.925,0.543-1.688c0.191-0.764,0.572-1.792,0.954-2.364c0.381-0.572,0.763-0.69,1.556-1.086
	c0.793-0.397,1.997-1.072,2.965-1.307c0.969-0.234,1.703-0.029,3.436,0.22c1.732,0.25,4.462,0.543,5.946,0.602
	c1.482,0.059,1.717-0.117,1.952-0.426s0.47-0.749,0.822-0.939c0.352-0.191,0.822-0.132,1.82,0.044
	c0.999,0.176,2.525,0.47,3.891,0.822c1.365,0.353,2.569,0.764,3.612,1.366c1.042,0.602,1.923,1.395,1.835,1.85
	c-0.088,0.455-1.145,0.572-3.244,0.734s-5.241,0.367-7.002,0.514c-1.762,0.146-2.144,0.235-3.303,0.5
	c-1.16,0.264-3.098,0.704-3.979,1.394s-0.705,1.629-0.381,2.496c0.322,0.866,0.792,1.659,2.011,1.718s3.186-0.617,5.168-1.071
	c1.981-0.456,3.978-0.69,5.432-0.543c1.453,0.146,2.363,0.675,3.244,0.954s1.732,0.309,2.775-0.25
	c1.042-0.558,2.275-1.703,3.523-3.186c1.248-1.483,2.51-3.303,3.42-3.979s1.468-0.206,1.938,1.307s0.852,4.066,1.028,6.841
	c0.176,2.774,0.147,5.77,0.425,7.414c0.279,1.644,0.866,1.938,1.806,1.541c0.939-0.396,2.231-1.482,3.376-2.671
	c1.145-1.189,2.144-2.481,2.877-2.833c0.734-0.352,1.204,0.235,1.424,0.646s0.191,0.646-0.073,2.041
	c-0.264,1.395-0.764,3.949-0.999,5.96c-0.235,2.011-0.205,3.479,0.279,4.345s1.424,1.13,2.29,0.69
	c0.866-0.44,1.659-1.586,2.305-2.467c0.646-0.88,1.145-1.497,1.791-1.527c0.646-0.029,1.439,0.528,2.408,1.042
	c0.969,0.514,2.114,0.983,2.819,1.63c0.705,0.646,0.969,1.467,1.101,2.04c0.132,0.573,0.132,0.896,0.323,1.6
	c0.19,0.705,0.572,1.792,1.042,2.599c0.47,0.807,1.027,1.336,2.29,2.496c1.263,1.16,3.23,2.951,4.654,4.008s2.305,1.38,3.274,1.497
	c0.969,0.117,2.025,0.03,3.435,0.338s3.171,1.013,4.184,1.468c1.013,0.455,1.277,0.66,1.629,0.983s0.792,0.763,1.218,1.438
	c0.426,0.675,0.837,1.585,1.321,2.893c0.484,1.306,1.042,3.009,1.307,4.169s0.235,1.776-0.279,2.525s-1.512,1.629-2.173,2.378
	c-0.661,0.749-0.983,1.365-0.836,2.246c0.146,0.88,0.763,2.026,1.409,3.097c0.646,1.072,1.321,2.07,3.039,2.761
	c1.718,0.689,4.478,1.071,6.871,1.453c2.393,0.381,4.419,0.763,6.503,1.042c2.084,0.279,4.228,0.455,5.726,0.455
	c1.497,0,2.349-0.176,2.73,0.103c0.382,0.279,0.294,1.013,0.206,1.835c-0.088,0.822-0.176,1.732,0.103,2.613
	s0.925,1.732,1.571,2.701c0.646,0.969,1.292,2.055,1.908,2.789c0.617,0.734,1.204,1.116,2.173,1.307s2.319,0.191,3.479,0
	c1.16-0.191,2.128-0.573,2.613-1.233s0.484-1.6,0.22-2.452c-0.264-0.851-0.793-1.615-1.262-2.378
	c-0.47-0.764-0.881-1.527-0.999-2.628s0.059-2.54,0.396-3.406c0.337-0.866,0.837-1.16,1.512-1.145s1.526,0.337,2.349,0.293
	s1.615-0.455,2.408-0.91c0.792-0.456,1.585-0.955,2.349-1.865c0.764-0.91,1.498-2.232,2.085-3.039
	c0.587-0.807,1.027-1.101,1.541-0.851c0.514,0.249,1.101,1.042,1.38,2.114c0.279,1.072,0.249,2.422,0.234,3.229
	c-0.014,0.808-0.014,1.072,0.088,1.395c0.103,0.323,0.308,0.705,1.307,1.439c0.998,0.734,2.789,1.82,3.971,2.503
	c1.182,0.683,1.754,0.961,2.826,1.145c1.071,0.184,2.642,0.271,4.353,0.11c1.71-0.162,3.56-0.573,4.558-0.514
	c0.998,0.059,1.146,0.587,1.373,1.219c0.228,0.631,0.536,1.365,0.764,1.813c0.227,0.448,0.375,0.609,0.771,0.822
	c0.396,0.212,1.042,0.477,2.114,0.639c1.072,0.161,2.569,0.22,4.081,0.235s3.039-0.015,4.5-0.03
	c1.461-0.015,2.855-0.014,3.869-0.043c1.013-0.03,1.644-0.088,1.769-0.573c0.125-0.484-0.257-1.395-0.661-2.195
	c-0.404-0.8-0.83-1.49-0.932-2.231c-0.103-0.742,0.117-1.535,1.071-2.122c0.954-0.587,2.643-0.969,3.619-1.211
	c0.977-0.242,1.241-0.345,1.74-0.132s1.233,0.741,2.225,1.475c0.991,0.734,2.238,1.673,2.826,2.305
	c0.587,0.631,0.514,0.954,0.293,1.526s-0.587,1.395-0.815,2.078c-0.228,0.683-0.315,1.226-0.367,2.246s-0.066,2.517,0.103,3.56
	c0.169,1.042,0.521,1.629,0.742,1.997c0.22,0.367,0.308,0.514,0.719,0.646c0.411,0.132,1.145,0.25,1.916,0.132
	c0.771-0.118,1.578-0.47,1.878-0.991c0.301-0.521,0.096-1.211-0.051-1.959c-0.147-0.749-0.235-1.557-0.418-2.305
	c-0.184-0.749-0.462-1.438-0.44-2.18s0.345-1.534,1.152-2.173s2.099-1.123,2.826-1.563c0.727-0.441,0.888-0.837,1.027-1.454
	c0.14-0.617,0.257-1.454,0.668-2.107s1.116-1.123,1.784-1.542s1.299-0.785,1.615-1.167c0.316-0.381,0.316-0.778,0.301-1.358
	s-0.044-1.343-0.433-1.798c-0.389-0.455-1.138-0.602-1.894-0.814c-0.756-0.212-1.52-0.492-1.901-0.954s-0.382-1.108-0.301-1.651
	c0.081-0.543,0.242-0.984,0.712-1.542c0.47-0.558,1.248-1.233,1.872-1.865s1.093-1.218,1.292-1.74
	c0.198-0.521,0.125-0.976-0.059-1.262s-0.477-0.404-1.299-0.528c-0.823-0.125-2.173-0.257-3.194-0.375
	c-1.02-0.117-1.709-0.22-2.282-0.558c-0.573-0.337-1.028-0.91-2.128-2.099c-1.101-1.189-2.848-2.995-3.912-4.103
	c-1.064-1.108-1.446-1.52-1.453-2.092c-0.008-0.572,0.359-1.307,0.617-2.063c0.256-0.756,0.403-1.535,0.352-2.166
	c-0.052-0.631-0.301-1.116-0.653-1.644c-0.353-0.529-0.808-1.102-1.057-1.799s-0.293-1.519-0.33-2.261
	c-0.037-0.741-0.066-1.402,0.183-1.908c0.25-0.506,0.778-0.859,1.299-1.292c0.521-0.433,1.035-0.947,1.498-1.152
	c0.462-0.205,0.874-0.103,1.402-0.043c0.528,0.059,1.174,0.073,1.248-0.287c0.073-0.359-0.426-1.093-0.779-1.71
	c-0.353-0.616-0.558-1.115-0.594-1.996s0.095-2.144,0.382-2.738c0.286-0.595,0.727-0.521,1.284-0.514
	c0.558,0.007,1.233-0.051,1.38-0.668c0.146-0.617-0.235-1.791-0.925-3.86c-0.69-2.07-1.688-5.035-2.195-6.915
	c-0.506-1.879-0.521-2.671-0.521-3.97c0-1.3,0.015-3.105-0.007-5.175c-0.021-2.07-0.081-4.404-0.029-5.865
	c0.052-1.461,0.213-2.048,1.057-3.347c0.844-1.299,2.371-3.311,3.304-4.44c0.932-1.131,1.27-1.38,2.503-1.469
	c1.233-0.088,3.361-0.015,5.277,0.169c1.916,0.184,3.619,0.477,5.124,0.705c1.505,0.227,2.811,0.389,3.553,0.69
	c0.741,0.301,0.917,0.741,1.145,1.248c0.228,0.507,0.507,1.079,0.367,2.107c-0.14,1.027-0.697,2.51-1.336,4.426
	c-0.639,1.916-1.358,4.264-1.842,5.989s-0.734,2.826-1.013,3.56c-0.279,0.734-0.587,1.102-0.947,1.52
	c-0.36,0.418-0.771,0.888-1.233,1.189c-0.462,0.301-0.976,0.434-1.6,0.573c-0.624,0.139-1.358,0.286-1.769,0.021
	c-0.412-0.264-0.499-0.939-0.661-1.453c-0.162-0.514-0.396-0.866-0.793-0.954c-0.396-0.088-0.954,0.088-1.307,0.389
	c-0.352,0.301-0.5,0.727-0.646,1.336c-0.147,0.609-0.294,1.402-0.338,2.268c-0.044,0.866,0.015,1.806,0.081,2.731
	c0.066,0.925,0.139,1.835,0.191,2.452c0.051,0.617,0.081,0.939-0.125,1.548c-0.206,0.609-0.646,1.505-0.69,2.114
	c-0.044,0.609,0.308,0.932,1.101,1.52c0.792,0.587,2.026,1.439,2.885,2.1c0.858,0.661,1.343,1.13,1.74,1.974
	c0.396,0.844,0.704,2.063,0.785,3.23c0.081,1.167-0.066,2.283-0.191,3.237c-0.125,0.954-0.228,1.747-0.095,2.319
	c0.132,0.573,0.499,0.925,1.233,1.358c0.734,0.433,1.835,0.947,2.488,1.431c0.653,0.484,0.858,0.939,1.218,1.622
	c0.36,0.683,0.874,1.593,1.146,2.122c0.271,0.528,0.301,0.675,0.434,1.079c0.132,0.404,0.367,1.064,0.315,1.659
	s-0.389,1.123-0.852,1.908c-0.462,0.786-1.05,1.828-1.41,2.657c-0.359,0.83-0.492,1.446-0.433,1.887
	c0.059,0.44,0.309,0.705,0.954,0.785c0.646,0.081,1.688-0.022,2.599-0.074c0.911-0.051,1.688-0.051,2.217,0.235
	c0.528,0.286,0.808,0.858,1.108,1.453c0.301,0.594,0.624,1.211,0.8,1.725c0.177,0.514,0.206,0.925,0.154,1.718
	c-0.051,0.792-0.183,1.967-0.169,2.84c0.015,0.874,0.176,1.446,0.587,2.503c0.412,1.057,1.072,2.598,1.49,3.582
	s0.595,1.409,0.983,1.52c0.389,0.11,0.991-0.095,1.351-0.382c0.36-0.286,0.477-0.653,0.514-2.349
	c0.037-1.696-0.007-4.72-0.051-6.401c-0.044-1.681-0.088-2.019,0.168-2.187c0.257-0.169,0.815-0.169,1.248-0.14
	c0.433,0.029,0.741,0.088,1.072,0.411c0.33,0.323,0.682,0.91,1.189,1.622c0.506,0.712,1.167,1.549,1.695,2.334
	c0.529,0.786,0.925,1.52,1.211,2.114c0.286,0.594,0.462,1.05,0.697,2.224c0.235,1.175,0.529,3.068,0.778,4.881
	c0.25,1.813,0.456,3.546,0.955,4.896c0.499,1.351,1.292,2.319,2.304,3.597c1.013,1.277,2.247,2.863,3.113,3.656
	c0.866,0.792,1.365,0.792,1.953,0.602c0.587-0.191,1.262-0.573,1.585-1.13c0.323-0.558,0.293-1.292,0.22-2.364
	s-0.19-2.481-0.176-3.464c0.015-0.984,0.161-1.542,0.925-3.612s2.144-5.652,3.068-8.016c0.925-2.363,1.395-3.509,1.277-4.595
	c-0.118-1.086-0.822-2.114-1.521-3.046c-0.698-0.933-1.392-1.771-1.805-3.092c-0.412-1.321-0.545-3.127-0.501-4.25
	c0.045-1.123,0.265-1.563,1.409-1.769c1.146-0.206,3.216-0.176,5.911-0.286c2.695-0.11,6.017-0.358,7.941-0.13
	s2.453,0.933,2.291,1.74c-0.161,0.808-1.013,1.718-1.395,2.408c-0.381,0.69-0.293,1.16,0.294,1.307
	c0.587,0.147,1.674-0.029,2.554-0.396c0.882-0.367,1.557-0.925,2.07-0.558c0.515,0.367,0.866,1.659,1.028,3.274
	c0.161,1.615,0.132,3.552,0.205,4.977c0.073,1.424,0.25,2.334-0.234,2.76s-1.63,0.367-2.276,0.778
	c-0.646,0.411-0.793,1.292-0.543,2.172c0.25,0.881,0.896,1.762,1.688,2.334c0.793,0.572,1.732,0.837,2.319,1.542
	s0.821,1.85,1.101,2.79c0.279,0.939,0.603,1.673,1.307,2.451c0.705,0.778,1.791,1.6,2.393,2.584c0.603,0.983,0.72,2.128,0.603,3.567
	c-0.118,1.438-0.47,3.17-1.864,4.844c-1.395,1.673-3.832,3.289-5.271,4.551c-1.439,1.263-1.879,2.173-2.363,2.217
	c-0.485,0.044-1.014-0.778-1.586-1.277c-0.572-0.5-1.189-0.676-1.63-0.778c-0.439-0.103-0.704-0.132-0.939,0.308
	c-0.234,0.44-0.44,1.351-0.44,2.158s0.206,1.512,0.572,2.819c0.368,1.307,0.896,3.215,0.441,3.596
	c-0.455,0.382-1.894-0.763-3.362-1.776c-1.468-1.013-2.965-1.894-4.242-2.437c-1.277-0.543-2.334-0.749-3.377-0.426
	c-1.042,0.323-2.069,1.174-2.862,2.011s-1.351,1.659-1.146,2.613c0.206,0.955,1.175,2.041,1.807,2.775
	c0.631,0.734,0.924,1.115,0.498,1.806c-0.426,0.689-1.57,1.688-2.687,2.54s-2.202,1.556-3.567,1.82s-3.009,0.088-4.478-0.367
	c-1.468-0.455-2.76-1.189-3.949-1.776c-1.189-0.587-2.276-1.028-2.965-1.292c-0.69-0.264-0.984-0.353-1.557-0.147
	c-0.572,0.206-1.423,0.705-1.996,1.409c-0.572,0.705-0.866,1.615-0.47,2.276c0.396,0.66,1.482,1.071,2.627,1.732
	s2.349,1.571,3.347,1.953c0.999,0.382,1.791,0.235,3.259,0.191s3.611,0.015,5.094,0.235c1.483,0.22,2.305,0.602,2.996,0.925
	c0.689,0.323,1.247,0.587,1.585,1.219c0.338,0.631,0.455,1.629,0.602,2.921c0.147,1.292,0.323,2.877-0.059,4.213
	c-0.382,1.336-1.321,2.422-1.967,3.274c-0.646,0.852-0.999,1.468-1.483,1.732c-0.484,0.264-1.101,0.176-2.687,0.411
	s-4.14,0.792-5.755,1.218s-2.29,0.72-2.702,1.204c-0.411,0.484-0.558,1.16-0.572,1.85c-0.014,0.69,0.103,1.395,0.088,2.158
	c-0.015,0.763-0.162,1.585-0.426,2.363s-0.646,1.512-1.145,1.791c-0.5,0.279-1.116,0.103-1.909-0.073
	c-0.792-0.176-1.762-0.353-2.085-0.029c-0.322,0.323,0,1.145,0.47,2.393c0.47,1.248,1.086,2.922,1.16,3.92
	c0.073,0.999-0.396,1.321-1.365,1.967c-0.969,0.646-2.437,1.615-3.45,2.628c-1.013,1.013-1.57,2.069-2.07,2.848
	c-0.499,0.778-0.939,1.278-1.922,1.835c-0.984,0.558-2.51,1.174-3.494,1.879c-0.983,0.705-1.424,1.498-2.1,2.657
	c-0.675,1.16-1.585,2.687-2.011,4.008s-0.367,2.437-0.294,3.392c0.074,0.954,0.162,1.746,0.059,2.261
	c-0.103,0.514-0.396,0.748-0.925,1.115c-0.528,0.367-1.292,0.866-1.82,1.82c-0.528,0.954-0.822,2.363-1.732,6.665
	s-2.437,11.495-3.215,15.297c-0.778,3.803-0.808,4.214-0.588,5.461c0.22,1.248,0.69,3.333,0.999,4.456s0.456,1.284,0.933,1.445
	c0.477,0.161,1.284,0.323,2.51,0.491c1.226,0.169,2.87,0.346,3.765,0.609c0.896,0.265,1.042,0.617,1.365,1.439
	c0.323,0.821,0.822,2.113,1.512,2.818c0.69,0.704,1.571,0.822,2.518,0.998s1.96,0.411,2.43,0.778
	c0.47,0.366,0.396,0.866,0.375,1.556c-0.022,0.69,0.007,1.571,0,3.458c-0.007,1.886-0.052,4.778-0.074,6.326
	c-0.022,1.55-0.022,1.755,0.433,2.379s1.365,1.666,2.025,2.437s1.072,1.271,1.424,1.469s0.646,0.095,1.872-0.294
	c1.226-0.389,3.384-1.064,4.69-1.388c1.307-0.322,1.762-0.293,3.391-0.278s4.434,0.015,5.99,0.088
	c1.557,0.073,1.864,0.221,3.567,0.543c1.703,0.323,4.801,0.822,6.46,1.16c1.658,0.338,1.878,0.514,2.796,1.079
	s2.532,1.52,3.443,2.084c0.91,0.565,1.115,0.742,2.362,2.056c1.249,1.313,3.539,3.766,4.838,5.271s1.607,2.063,1.894,2.378
	c0.286,0.316,0.551,0.389,1.373,0.72c0.822,0.33,2.202,0.917,3.053,1.167c0.853,0.249,1.175,0.161,2.276-0.029
	c1.101-0.191,2.979-0.484,4.052-0.588c1.071-0.103,1.336-0.015,1.974,0.198c0.64,0.214,1.652,0.551,2.283,0.808
	c0.632,0.257,0.881,0.434,1.131,0.933c0.249,0.499,0.499,1.321,0.777,1.791c0.279,0.47,0.588,0.587,1.674,0.631
	c1.087,0.044,2.951,0.015,4.309,0.029c1.358,0.015,2.21,0.073,3.024,0.213s1.592,0.359,2.421,0.616
	c0.83,0.257,1.711,0.551,2.694,0.521s2.069-0.382,3.574-0.749s3.428-0.749,4.492-0.874c1.064-0.124,1.271,0.008,1.688,0.492
	c0.419,0.484,1.05,1.321,1.469,1.938c0.418,0.616,0.623,1.013,0.646,2.539c0.021,1.527-0.14,4.184-0.301,6.452
	c-0.162,2.268-0.323,4.146-0.302,5.313c0.022,1.167,0.228,1.622,0.925,2.62s1.887,2.54,2.841,3.766s1.674,2.136,2.21,2.848
	c0.535,0.713,0.888,1.227,1.034,1.88c0.146,0.652,0.089,1.445-0.073,2.524c-0.161,1.079-0.426,2.444-0.294,3.317
	c0.133,0.874,0.661,1.256,1.271,1.674c0.609,0.419,1.299,0.874,2.297,0.962c0.999,0.088,2.306-0.19,3.135-0.14
	c0.829,0.052,1.182,0.434,1.343,0.888c0.162,0.456,0.133,0.984-0.205,1.55c-0.338,0.564-0.983,1.167-1.211,1.658
	c-0.228,0.492-0.037,0.874,0.8,0.918s2.319-0.25,3.296-0.008c0.976,0.242,1.445,1.021,2.15,2.019
	c0.705,0.999,1.645,2.217,2.76,2.914c1.116,0.697,2.408,0.874,3.876,0.983c1.469,0.11,3.112,0.154,4.147-0.073
	s1.461-0.727,1.674-1.167c0.212-0.44,0.212-0.822,0.029-2.004c-0.184-1.182-0.551-3.163-0.448-4.279
	c0.103-1.115,0.675-1.365,1.505-1.739c0.829-0.374,1.915-0.874,2.503-1.358c0.587-0.484,0.675-0.954,0.719-1.952
	c0.045-0.998,0.045-2.525-0.088-3.436c-0.132-0.91-0.396-1.203-0.969-1.614s-1.453-0.939-1.835-1.498
	c-0.382-0.558-0.265-1.145-0.265-2.334s-0.117-2.98-0.632-4.624c-0.513-1.645-1.423-3.142-2.025-4.081
	c-0.602-0.939-0.896-1.321-2.011-2.319c-1.116-0.999-3.054-2.613-3.964-3.686c-0.91-1.071-0.793-1.6-0.602-2.481
	c0.19-0.881,0.455-2.114,0.073-3.127s-1.409-1.806-2.467-2.524c-1.057-0.72-2.143-1.366-2.687-2.07
	c-0.543-0.705-0.543-1.468-0.029-2.437c0.515-0.97,1.542-2.144,2.394-2.761c0.852-0.616,1.526-0.675,2.261-0.602
	c0.733,0.073,1.526,0.279,2.363,0.103c0.837-0.176,1.718-0.733,2.496-1.409c0.777-0.675,1.453-1.468,2.099-2.144
	c0.646-0.675,1.263-1.232,1.468-2.04c0.206-0.808,0.001-1.864-0.22-2.826c-0.22-0.961-0.455-1.828-0.396-2.386
	s0.411-0.808,0.925-1.27c0.514-0.463,1.189-1.138,1.74-1.747c0.55-0.609,0.976-1.152,1.27-1.615c0.293-0.462,0.455-0.844,0.543-1.93
	c0.088-1.087,0.104-2.878-0.029-4.522c-0.132-1.644-0.411-3.142-0.874-5.006c-0.462-1.864-1.108-4.096-1.813-5.975
	c-0.705-1.879-1.469-3.406-2.584-5.079c-1.115-1.674-2.584-3.494-4.14-5.139c-1.557-1.644-3.2-3.112-4.625-4.375
	c-1.424-1.263-2.628-2.319-4.008-3.155c-1.38-0.837-2.936-1.454-3.89-2.012c-0.955-0.558-1.307-1.057-1.072-2.29
	c0.235-1.233,1.057-3.2,1.747-5.006s1.248-3.45,1.762-4.713s0.983-2.144,1.115-3.891c0.133-1.747-0.072-4.359-0.381-5.784
	c-0.309-1.424-0.72-1.659-1.321-1.791s-1.395-0.161-1.967-0.616c-0.573-0.455-0.926-1.336-1.234-1.996
	c-0.308-0.661-0.572-1.102-1.218-1.586s-1.674-1.013-2.599-1.645c-0.925-0.631-1.747-1.365-1.952-1.908
	c-0.206-0.543,0.205-0.896,0.631-1.732s0.866-2.158,1.057-3.039c0.191-0.881,0.133-1.321-0.176-2.084
	c-0.308-0.764-0.866-1.85-1.791-3.017s-2.216-2.415-2.848-3.457c-0.632-1.042-0.602-1.879-0.543-2.98s0.146-2.466,0.521-3.567
	c0.374-1.101,1.034-1.938,1.666-2.517c0.631-0.581,1.233-0.903,2.158-0.977s2.173,0.103,3.259,0.088s2.011-0.22,3.281-0.682
	c1.27-0.463,2.885-1.182,4.191-1.527c1.307-0.345,2.305-0.316,3.449-0.294c1.146,0.022,2.437,0.038,3.303-0.131
	c0.866-0.168,1.306-0.521,1.827-0.947s1.123-0.925,2.092-1.174s2.306-0.25,3.26-0.22s1.526,0.088,2.399,0.433
	c0.874,0.345,2.049,0.976,3.912,1.864c1.865,0.889,4.42,2.033,5.579,2.79c1.16,0.756,0.925,1.123,0.749,1.828
	c-0.177,0.705-0.294,1.747-0.315,2.422c-0.022,0.675,0.051,0.983,0.41,1.277c0.36,0.293,1.006,0.573,1.513,0.786
	s0.873,0.359,1.336,0.44c0.463,0.081,1.021,0.095,1.607,0.081s1.204-0.059,1.901-0.506c0.697-0.448,1.475-1.299,2.069-1.747
	s1.006-0.492,1.857-0.543c0.852-0.052,2.144-0.11,3.391-0.132c1.248-0.022,2.452-0.007,3.157,0.228
	c0.704,0.235,0.91,0.69,1.328,1.475c0.418,0.786,1.05,1.902,1.307,2.833c0.257,0.932,0.14,1.681,0.073,2.643
	c-0.066,0.961-0.081,2.136-0.103,2.907c-0.022,0.771-0.052,1.138,0.205,1.637s0.8,1.13,2.084,2.503
	c1.285,1.373,3.311,3.487,4.537,4.808c1.226,1.321,1.651,1.85,1.842,2.826c0.191,0.976,0.147,2.4,0.334,3.248
	c0.188,0.848,0.605,1.119,1.075,1.284s0.991,0.224,2.896,0.249c1.905,0.025,5.193,0.019,7.377,0.026
	c2.185,0.007,3.263,0.029,3.964,0.019c0.701-0.012,1.023-0.056,1.365-0.323c0.341-0.269,0.701-0.76,1.324-1.688
	c0.624-0.929,1.513-2.294,2.02-3.083c0.506-0.789,0.631-1.002,0.693-1.357c0.063-0.356,0.063-0.855,0.04-1.578
	s-0.066-1.669-0.037-2.378s0.132-1.178,0.367-2.206c0.234-1.028,0.602-2.613,0.8-3.722c0.198-1.108,0.228-1.74,0.007-2.76
	c-0.22-1.021-0.689-2.43-1.027-4.008c-0.338-1.578-0.543-3.325-0.58-4.543c-0.037-1.219,0.096-1.908,0.184-2.693
	c0.088-0.786,0.132-1.667,0.301-2.246s0.463-0.859,1.314-0.83c0.852,0.03,2.26,0.367,3.486,0.815
	c1.226,0.448,2.268,1.005,3.097,1.886c0.83,0.881,1.446,2.084,2.085,3.413s1.3,2.782,1.77,3.744s0.749,1.432,1.438,1.703
	s1.791,0.345,2.855,0.403c1.064,0.059,2.092,0.103,2.753,0.169c0.66,0.066,0.954,0.154,1.24,0.407
	c0.286,0.253,0.565,0.671,0.998,1.104c0.434,0.433,1.021,0.881,1.248,1.295c0.228,0.415,0.096,0.797,0.044,1.608
	s-0.022,2.052,0.019,2.822c0.04,0.771,0.092,1.072,0.249,1.267c0.158,0.194,0.423,0.282,1.256,0.33
	c0.833,0.047,2.234,0.055,3.464,0.063c1.23,0.007,2.287,0.014,2.977,0.062c0.69,0.048,1.014,0.136,1.34,0.36
	c0.327,0.224,0.657,0.583,1.134,1.325c0.478,0.742,1.101,1.865,1.654,2.881c0.555,1.017,1.039,1.927,1.493,2.447
	c0.456,0.521,0.882,0.653,1.63,0.837c0.749,0.184,1.82,0.419,2.415,0.668c0.595,0.25,0.712,0.515,0.749,1.688
	c0.037,1.175-0.008,3.26-0.044,4.786c-0.037,1.526-0.066,2.495-0.016,3.138c0.052,0.643,0.184,0.958,0.488,1.362
	c0.305,0.403,0.782,0.895,1.167,1.171c0.386,0.274,0.68,0.334,1.476,0.326c0.797-0.008,2.096-0.081,2.878-0.055
	c0.781,0.025,1.046,0.15,1.747,0.594c0.7,0.444,1.839,1.208,2.55,1.594c0.713,0.385,0.999,0.392,1.352,0.22
	c0.352-0.173,0.771-0.524,1.276-0.965c0.507-0.44,1.102-0.97,1.659-1.227s1.079-0.242,1.736-0.234
	c0.657,0.007,1.449,0.007,2.003,0.015c0.555,0.007,0.87,0.022,1.358,0.478c0.487,0.455,1.148,1.351,1.698,2.092
	c0.551,0.741,0.991,1.328,1.186,1.739c0.195,0.411,0.144,0.646-0.015,1.014c-0.157,0.366-0.422,0.866-0.649,1.263
	s-0.418,0.689-0.363,0.852c0.055,0.161,0.356,0.19,0.881,0.18s1.273-0.063,1.956-0.353c0.683-0.289,1.3-0.818,2.088-1.468
	c0.79-0.649,1.751-1.42,2.415-1.949c0.665-0.528,1.032-0.814,1.414-0.983c0.381-0.169,0.778-0.22,1.332-0.213
	c0.554,0.008,1.266,0.073,2.168,0.003c0.903-0.069,1.996-0.274,2.991-0.443s1.89-0.301,2.734-0.246
	c0.844,0.056,1.637,0.297,2.474,0.462c0.837,0.166,1.717,0.253,2.414,0.407s1.211,0.374,1.336,0.852
	c0.125,0.477-0.14,1.211-0.646,2.217c-0.506,1.006-1.254,2.282-1.915,3.501s-1.233,2.378-1.931,3.398s-1.52,1.901-2.136,2.599
	s-1.028,1.211-1.277,1.695c-0.25,0.484-0.338,0.939-0.47,1.666c-0.133,0.727-0.309,1.726-0.396,2.532
	c-0.088,0.808-0.088,1.425,0.146,2.107c0.235,0.683,0.705,1.431,1.256,1.864c0.55,0.433,1.182,0.551,1.85,0.308
	c0.668-0.241,1.372-0.844,1.717-1.336c0.346-0.491,0.331-0.873,0.229-1.71c-0.104-0.837-0.294-2.129-0.346-3.046
	c-0.051-0.918,0.037-1.461,0.367-2.041c0.33-0.579,0.903-1.196,1.542-1.629c0.639-0.434,1.343-0.683,1.85-1.146
	c0.507-0.462,0.814-1.138,1.401-2.239c0.588-1.101,1.454-2.627,2.004-3.501c0.551-0.873,0.785-1.094,1.233-1.232
	c0.448-0.14,1.108-0.198,1.513-0.118c0.403,0.081,0.55,0.301,1.174,1.248s1.725,2.62,2.4,3.443c0.676,0.821,0.925,0.792,1.417,0.072
	c0.491-0.719,1.226-2.128,1.762-3.046c0.535-0.917,0.873-1.343,1.218-1.563c0.346-0.22,0.698-0.234,1.138-0.117
	c0.44,0.117,0.97,0.367,1.755,0.777c0.785,0.412,1.827,0.984,2.664,1.336c0.837,0.353,1.468,0.485,2.173,0.559
	c0.704,0.073,1.482,0.088,2.048,0.418c0.565,0.331,0.917,0.977,2.202,2.937c1.284,1.96,3.501,5.233,4.609,7.054
	s1.108,2.188,1.101,2.818c-0.007,0.632-0.021,1.527,0,2.231c0.022,0.705,0.081,1.219,0.016,1.895
	c-0.066,0.675-0.258,1.512-0.815,3.493c-0.558,1.982-1.482,5.109-2.011,6.813c-0.529,1.702-0.661,1.981-1.058,2.407
	c-0.396,0.426-1.057,0.998-1.754,1.666c-0.697,0.669-1.431,1.432-2.165,2.034c-0.733,0.602-1.468,1.042-1.901,1.335
	c-0.433,0.294-0.564,0.441-1.021,1.293c-0.454,0.852-1.232,2.407-1.637,3.376c-0.403,0.969-0.433,1.351-0.227,2.782
	c0.205,1.431,0.646,3.912,0.711,5.292c0.066,1.38-0.241,1.659-1.086,2.261c-0.844,0.602-2.224,1.526-3.075,2.312
	s-1.174,1.432-1.614,2.077c-0.44,0.646-0.998,1.292-3.112,3.348c-2.114,2.055-5.784,5.52-7.781,7.207
	c-1.996,1.688-2.319,1.601-3.288,1.483s-2.584-0.265-3.655-0.235c-1.072,0.029-1.601,0.235-2.438,0.866
	c-0.836,0.632-1.981,1.688-3.156,2.555c-1.174,0.866-2.378,1.541-4.14,2.393s-4.081,1.88-6.07,2.768s-3.647,1.637-5.021,2.451
	c-1.373,0.815-2.459,1.696-3.304,2.394c-0.844,0.697-1.445,1.211-2.157,1.329c-0.712,0.117-1.534-0.162-2.379-0.309
	c-0.844-0.147-1.71-0.162-2.466,0.088c-0.756,0.249-1.402,0.764-2.063,1.321c-0.661,0.558-1.336,1.16-1.557,2.063
	c-0.22,0.903,0.015,2.106,0.184,3.34s0.272,2.495,0.455,3.611c0.184,1.115,0.448,2.084,0.448,2.921s-0.265,1.542-0.66,2.246
	c-0.396,0.705-0.925,1.409-1.615,2.1c-0.69,0.689-1.541,1.365-2.334,2.158c-0.793,0.792-1.527,1.702-2.218,2.729
	c-0.689,1.028-1.335,2.174-2.025,3.377c-0.689,1.204-1.424,2.467-1.938,3.479s-0.808,1.776-0.954,2.466
	c-0.146,0.69-0.146,1.308-0.176,2.423c-0.03,1.115-0.088,2.73-0.603,4.55c-0.514,1.821-1.482,3.847-2.188,6.166
	c-0.704,2.319-1.145,4.933-1.556,6.899c-0.411,1.968-0.793,3.289-0.896,4.64s0.073,2.73,0.234,3.949
	c0.162,1.219,0.309,2.275,0.661,2.393s0.91-0.704,1.57-1.497c0.661-0.793,1.425-1.557,1.763-2.452
	c0.337-0.896,0.249-1.923,0.278-3.127c0.029-1.203,0.176-2.584,0.47-4.315c0.294-1.732,0.734-3.817,1.219-5.462
	c0.484-1.644,1.013-2.848,1.57-3.641c0.559-0.792,1.146-1.174,1.732-1.629c0.588-0.455,1.175-0.984,1.601-1.688
	c0.426-0.705,0.689-1.586,0.748-2.716c0.06-1.131-0.088-2.511,0.221-3.641c0.309-1.131,1.072-2.012,2.144-3.024
	s2.451-2.158,3.743-3.699c1.292-1.542,2.495-3.479,4.14-5.829c1.645-2.348,3.729-5.108,5.212-6.987
	c1.482-1.879,2.363-2.877,3.376-3.347c1.014-0.47,2.158-0.411,2.922-0.617c0.764-0.205,1.145-0.675,1.673-1.159
	c0.529-0.484,1.204-0.984,2.496-1.219c1.292-0.235,3.2-0.205,4.874,0.176c1.674,0.382,3.112,1.116,4.154,1.953
	c1.043,0.837,1.688,1.776,2.114,2.789s0.632,2.099,0.66,3.288c0.03,1.189-0.117,2.481-0.528,3.67
	c-0.411,1.189-1.086,2.275-1.453,3.171c-0.366,0.896-0.426,1.601-0.499,2.511s-0.161,2.026-0.073,3.317
	c0.088,1.292,0.353,2.761,0.925,3.935c0.572,1.175,1.453,2.056,2.407,2.862c0.955,0.808,1.982,1.542,2.995,2.158
	s2.011,1.115,3.156,1.658c1.145,0.543,2.437,1.13,3.566,1.585c1.131,0.455,2.1,0.778,3.024,1.058
	c0.925,0.278,1.806,0.514,2.378,1.145s0.837,1.659,0.499,2.495c-0.337,0.837-1.276,1.483-2.011,2.291
	c-0.734,0.807-1.263,1.776-1.63,3.126c-0.367,1.352-0.572,3.083-0.881,4.316c-0.308,1.233-0.719,1.968-2.055,2.863
	s-3.597,1.952-5.197,3.054c-1.601,1.101-2.54,2.246-2.906,3.332c-0.367,1.086-0.162,2.113-0.44,2.76
	c-0.279,0.646-1.043,0.91-1.938,1.101c-0.895,0.191-1.923,0.309-2.818-0.088c-0.896-0.396-1.659-1.307-2.657-2.407
	c-0.998-1.102-2.231-2.393-3.156-3.039c-0.925-0.646-1.541-0.646-2.129-0.969c-0.587-0.323-1.145-0.969-1.806-1.585
	c-0.66-0.617-1.424-1.204-2.157-1.982c-0.734-0.778-1.439-1.747-1.909-2.804c-0.47-1.058-0.704-2.202-0.896-3.288
	c-0.19-1.087-0.338-2.114-0.719-2.702c-0.382-0.587-0.999-0.733-1.836-1.027s-1.894-0.733-2.643-1.057
	c-0.748-0.323-1.188-0.528-1.731-0.323c-0.543,0.206-1.189,0.822-2.261,1.542c-1.071,0.719-2.569,1.541-3.494,1.996
	s-1.277,0.543-1.674,0.308c-0.396-0.234-0.836-0.792-1.263-0.895c-0.425-0.104-0.837,0.249-1.468,0.851
	c-0.631,0.603-1.482,1.454-1.864,2.394s-0.294,1.967-0.22,3.685c0.073,1.718,0.132,4.125,0.132,5.77s-0.059,2.525-0.528,3.861
	s-1.351,3.127-1.777,4.271c-0.425,1.146-0.396,1.645-0.073,2.334c0.323,0.69,0.94,1.571,1.292,2.291
	c0.353,0.719,0.44,1.276,0.265,1.981c-0.177,0.705-0.616,1.557-1.248,2.466c-0.631,0.911-1.453,1.88-2.319,2.672
	c-0.866,0.793-1.776,1.41-2.613,1.924s-1.6,0.925-1.894,1.762c-0.294,0.836-0.117,2.099-0.279,2.686
	c-0.161,0.588-0.66,0.5-1.614,0.603s-2.364,0.396-3.715,0.69c-1.351,0.293-2.643,0.587-3.92,0.733
	c-1.276,0.146-2.539,0.146-3.787,0.234c-1.247,0.088-2.48,0.265-3.655,0.852c-1.174,0.587-2.29,1.586-3.317,2.643
	s-1.967,2.173-2.818,2.848c-0.852,0.676-1.615,0.911-2.408,0.926c-0.792,0.014-1.614-0.191-2.29-0.03
	c-0.675,0.162-1.204,0.69-1.747,1.409c-0.543,0.72-1.101,1.63-1.747,2.394c-0.646,0.764-1.379,1.38-1.981,2.012
	c-0.602,0.631-1.071,1.277-1.526,1.819c-0.455,0.544-0.896,0.984-1.028,1.732c-0.132,0.749,0.044,1.806,0.133,2.716
	c0.088,0.91,0.088,1.674-0.382,2.394c-0.47,0.719-1.409,1.395-2.246,2.011c-0.837,0.617-1.571,1.175-2.261,1.292
	c-0.69,0.117-1.336-0.205-2.07-0.235c-0.734-0.028-1.556,0.235-2.144,0.721c-0.587,0.484-0.939,1.188-0.954,1.937
	c-0.015,0.749,0.309,1.542,0.235,2.1c-0.074,0.559-0.543,0.881-1.131,0.983c-0.587,0.104-1.292-0.015-2.129-0.073
	s-1.806-0.059-2.466,0c-0.661,0.059-1.013,0.177-1.615,0.617c-0.602,0.44-1.453,1.203-2.114,1.82
	c-0.66,0.616-1.13,1.086-1.717,1.188c-0.588,0.103-1.292-0.161-1.997-0.249c-0.704-0.088-1.409,0-2.349,0.616
	c-0.939,0.617-2.114,1.762-3.582,3.2c-1.469,1.438-3.229,3.172-4.411,4.272c-1.183,1.101-1.784,1.57-2.144,1.974
	c-0.359,0.404-0.478,0.742-0.58,1.396s-0.19,1.622,0.015,2.136c0.206,0.514,0.705,0.572,1.586,0.58
	c0.881,0.007,2.144-0.037,2.973-0.125s1.226-0.221,1.806-0.837s1.344-1.718,2.15-1.96c0.809-0.242,1.66,0.374,1.953,1.094
	c0.294,0.719,0.029,1.542-0.338,2.217c-0.367,0.676-0.837,1.204-1.307,1.755c-0.47,0.55-0.939,1.122-1.336,1.512
	c-0.396,0.389-0.719,0.595-1.739,0.954s-2.738,0.874-4.009,1.043c-1.27,0.168-2.092-0.008-2.744-0.089
	c-0.654-0.08-1.139-0.065-1.564,0.066s-0.792,0.382-1.104,0.723c-0.312,0.341-0.568,0.774-0.909,0.976
	c-0.341,0.202-0.767,0.173-1.266,0.165c-0.499-0.007-1.072,0.008-1.557,0.279s-0.881,0.8-1.321,1.226s-0.925,0.749-1.38,1.042
	c-0.455,0.294-0.881,0.559-1.416,0.926c-0.536,0.366-1.183,0.836-1.726,1.226c-0.543,0.389-0.983,0.697-1.512,0.852
	s-1.146,0.154-1.747,0.212c-0.603,0.06-1.189,0.177-1.622,0.39s-0.712,0.521-1.021,0.8c-0.309,0.279-0.646,0.529-0.896,1.108
	c-0.25,0.58-0.411,1.49-0.668,2.121c-0.257,0.632-0.609,0.984-1.05,1.277c-0.44,0.294-0.969,0.528-1.453,0.713
	c-0.484,0.183-0.925,0.315-1.313,0.631c-0.39,0.315-0.728,0.814-1.381,1.291c-0.653,0.476-1.622,0.928-2.474,0.892
	c-0.853-0.037-1.586-0.563-1.924-1.142c-0.337-0.579-0.278-1.21-0.028-1.842c0.249-0.631,0.689-1.263,1.21-1.835
	c0.521-0.572,1.123-1.086,1.615-1.52c0.491-0.433,0.873-0.785,0.983-1.174c0.11-0.39-0.052-0.815-0.205-1.667
	c-0.154-0.852-0.301-2.128-0.25-3.002c0.052-0.873,0.302-1.343,0.713-1.9c0.411-0.559,0.983-1.204,1.769-2.07
	s1.784-1.953,2.525-2.709s1.226-1.182,1.32-1.615c0.096-0.433-0.198-0.873-0.433-1.343s-0.411-0.969-0.411-1.791
	s0.177-1.967,0.271-3.075c0.096-1.108,0.109-2.181,0.124-2.915c0.015-0.733,0.029-1.13-0.22-2.313
	c-0.249-1.182-0.764-3.148-1.087-4.499c-0.322-1.351-0.454-2.085-0.521-2.855s-0.066-1.578,0.205-2.349s0.815-1.505,1.373-1.997
	c0.558-0.491,1.13-0.741,1.746-0.719c0.617,0.021,1.277,0.315,2.085,0.675c0.808,0.36,1.762,0.786,2.173,1.277
	c0.411,0.492,0.279,1.05,0.301,1.52c0.022,0.471,0.198,0.852,0.478,1.079s0.66,0.301,1.871,0.404
	c1.212,0.103,3.252,0.234,4.661,0.264c1.41,0.029,2.188-0.044,2.548-0.572c0.359-0.528,0.301-1.512,0.337-2.62
	c0.037-1.108,0.169-2.342,0.104-3.45c-0.066-1.108-0.33-2.092-0.808-2.841s-1.167-1.263-2.217-1.968
	c-1.05-0.704-2.459-1.6-3.45-2.274c-0.99-0.676-1.563-1.131-2.04-1.337c-0.478-0.205-0.858-0.161-1.505-0.095
	c-0.646,0.066-1.556,0.154-2.136-0.125s-0.83-0.925-1.152-1.651c-0.323-0.727-0.72-1.534-1.233-1.968
	c-0.514-0.433-1.146-0.491-2.987-0.462c-1.843,0.029-4.896,0.146-7.678,0.205c-2.782,0.059-5.293,0.059-6.9,0.059
	s-2.313,0-2.877-0.228c-0.565-0.227-0.991-0.683-1.417-1.186c-0.426-0.502-0.852-1.053-1.339-1.35
	c-0.488-0.298-1.039-0.342-1.634-0.386s-1.232-0.088-1.695-0.07c-0.463,0.019-0.749,0.1-1.098,0.444
	c-0.349,0.346-0.76,0.955-1.156,1.542c-0.396,0.587-0.777,1.152-1.2,1.42c-0.422,0.269-0.885,0.239-1.321,0.225
	s-0.848-0.015-1.09-0.019s-0.315-0.011-0.389-0.081c-0.073-0.069-0.146-0.202-0.125-0.609c0.022-0.407,0.14-1.09,0.125-1.615
	c-0.015-0.524-0.162-0.892-0.613-1.236s-1.207-0.668-1.853-0.929c-0.646-0.261-1.183-0.458-1.824-1.115s-1.391-1.772-1.78-2.609
	c-0.389-0.837-0.418-1.395-0.426-1.945c-0.007-0.55,0.008-1.094-0.124-1.607c-0.133-0.514-0.412-0.998-1.329-2.217
	c-0.917-1.218-2.474-3.171-3.567-4.47c-1.093-1.299-1.725-1.945-2.188-2.239c-0.462-0.293-0.756-0.234-1.614-0.146
	s-2.283,0.206-3.245,0.242c-0.961,0.037-1.46-0.007-2.04-0.484c-0.58-0.477-1.24-1.388-1.688-2.136
	c-0.447-0.749-0.683-1.336-0.675-1.931c0.007-0.595,0.257-1.196,0.234-1.681c-0.021-0.484-0.315-0.852-0.939-1.227
	c-0.624-0.374-1.578-0.756-2.422-1.137c-0.845-0.382-1.578-0.764-2.475-0.926c-0.895-0.161-1.952-0.103-3.816,0.016
	c-1.864,0.117-4.536,0.293-6.4,0.396c-1.864,0.104-2.922,0.133-3.641,0.169c-0.72,0.037-1.102,0.081-1.38,0.434
	c-0.279,0.353-0.455,1.013-0.771,1.306c-0.315,0.294-0.77,0.221-1.35,0.177s-1.285-0.059-1.776,0
	c-0.492,0.059-0.771,0.191-0.933,0.624s-0.206,1.167-0.323,1.732c-0.117,0.564-0.308,0.962-0.844,1.372
	c-0.536,0.411-1.417,0.837-2.43,1.314c-1.013,0.477-2.158,1.006-3.348,1.651c-1.188,0.646-2.422,1.409-3.376,1.776
	s-1.63,0.337-3.083,0.367c-1.453,0.029-3.685,0.117-5.96,0.146c-2.275,0.029-4.595,0-6.151-0.161s-2.349-0.455-3.289-1.043
	c-0.939-0.587-2.026-1.468-3.156-1.805c-1.13-0.338-2.305-0.133-4.668-0.338c-2.363-0.206-5.916-0.822-8.603-1.175
	s-4.507-0.44-5.549-0.749c-1.042-0.308-1.306-0.836-1.894-1.395c-0.587-0.558-1.498-1.145-2.672-1.497
	c-1.174-0.353-2.613-0.47-4.169-0.572s-3.23-0.191-6.474-0.191c-3.245,0-8.06,0.088-16.721-0.044
	c-8.662-0.132-21.169-0.484-30.505-1.071c-9.337-0.588-15.503-1.41-23.489-2.613c-7.986-1.204-17.793-2.79-23.948-3.854
	S246.384,481.945,241.786,481.027L241.786,481.027z M444.794,210.059c-0.499,1.057-0.675,1.674-0.733,2.511s0,1.894-0.074,3.097
	c-0.072,1.204-0.278,2.555-0.103,3.523c0.177,0.969,0.734,1.556,1.38,2.496c0.646,0.939,1.381,2.231,1.938,2.907
	s0.939,0.734,1.541,0.719c0.603-0.015,1.425-0.103,1.953-0.455c0.528-0.352,0.763-0.969,1.351-1.644
	c0.587-0.675,1.526-1.409,1.981-2.188s0.426-1.6,0.396-2.833c-0.029-1.233-0.059-2.877-0.235-4.096
	c-0.176-1.218-0.499-2.011-1.203-2.936c-0.705-0.925-1.791-1.982-2.863-2.863c-1.071-0.881-2.128-1.585-3.067-1.189
	C446.115,207.504,445.294,209.002,444.794,210.059L444.794,210.059z M456.979,206.858c-0.617,0.587-0.617,1.585-0.353,2.518
	c0.265,0.932,0.793,1.798,1.703,2.612c0.91,0.815,2.202,1.579,3.435,1.924c1.233,0.345,2.408,0.271,2.951-0.206
	c0.543-0.477,0.455-1.358-0.044-2.327c-0.499-0.969-1.409-2.025-2.246-2.95c-0.837-0.925-1.601-1.718-2.599-2.026
	S457.596,206.271,456.979,206.858L456.979,206.858z M414.905,139.417c-0.969-0.088-2.349,0.088-3.039,0.558
	c-0.689,0.47-0.689,1.233-0.264,2.129s1.276,1.923,2.363,3.479c1.086,1.556,2.407,3.641,3.391,4.492
	c0.984,0.852,1.63,0.47,2.394-0.088c0.763-0.558,1.645-1.292,2.818-1.703c1.175-0.412,2.643-0.5,3.816-0.631
	c1.175-0.132,2.056-0.309,2.613-1.057c0.559-0.749,0.793-2.07,0.793-3.112c0-1.042-0.234-1.806-1.16-2.525
	c-0.924-0.719-2.539-1.395-3.86-2.231c-1.321-0.837-2.349-1.835-3.083-2.246c-0.734-0.411-1.174-0.235-1.556,0.382
	s-0.705,1.673-1.219,2.305s-1.219,0.836-1.85,0.763C416.432,139.857,415.874,139.505,414.905,139.417L414.905,139.417z
	 M375.466,156.571c-0.612,3.049-1.288,6.278-1.86,8.936s-1.042,4.742-1.277,6.152c-0.235,1.409-0.235,2.143,0.059,2.847
	c0.293,0.705,0.881,1.38,2.965,2.481s5.667,2.628,7.561,3.523s2.099,1.16,2.114,1.512c0.015,0.352-0.161,0.792-1.027,1.057
	c-0.867,0.265-2.422,0.353-3.788,0.411c-1.365,0.059-2.54,0.088-3.186,0.411s-0.763,0.939-0.587,2.041
	c0.176,1.101,0.646,2.686,1.38,3.802c0.734,1.116,1.732,1.762,3.024,2.378c1.292,0.617,2.878,1.204,4.082,1.41
	s2.026,0.029,2.863-0.543c0.836-0.573,1.688-1.542,2.246-1.953c0.558-0.411,0.822-0.264,1.058,0.411
	c0.235,0.675,0.44,1.879,0.968,2.583c0.529,0.705,1.38,0.91,1.997,0.705c0.616-0.206,0.998-0.822,1.526-1.468
	c0.529-0.646,1.204-1.321,1.689-1.468c0.484-0.147,0.777,0.235,1.174,0.764c0.396,0.528,0.896,1.204,1.373,1.674
	c0.477,0.47,0.932,0.734,1.606,0.888c0.676,0.154,1.571,0.198,2.202,0.029c0.632-0.169,0.999-0.55,1.152-1.027
	c0.154-0.477,0.096-1.05,0.434-1.358c0.338-0.308,1.071-0.352,2.085-0.206c1.013,0.147,2.305,0.484,3.2,0.639
	s1.395,0.125,1.894-0.213c0.499-0.337,0.999-0.983,1.405-1.464c0.408-0.48,0.724-0.796,1.153-0.954
	c0.429-0.158,0.973-0.158,1.398-0.033c0.426,0.125,0.733,0.374,1.086,0.675c0.353,0.301,0.749,0.653,1.446,0.83
	c0.697,0.176,1.695,0.176,2.503,0.021s1.424-0.462,2.025-0.506c0.603-0.044,1.189,0.176,1.776,0.404
	c0.588,0.227,1.175,0.462,1.755,0.536c0.58,0.073,1.152-0.015,1.739-0.279c0.588-0.265,1.189-0.705,1.417-1.321
	s0.081-1.409-0.037-1.967c-0.117-0.558-0.205-0.881-1.057-1.505s-2.466-1.549-3.59-2.209c-1.123-0.661-1.754-1.057-2.349-1.703
	c-0.595-0.646-1.153-1.542-0.991-2.342c0.161-0.8,1.042-1.505,1.827-1.695c0.785-0.191,1.476,0.132,2.069,0.616
	c0.595,0.485,1.095,1.13,1.535,1.601c0.44,0.469,0.822,0.764,1.563,0.947c0.741,0.184,1.842,0.257,2.921,0.271
	s2.136-0.029,2.774,0.029s0.859,0.22,0.918,0.749c0.059,0.528-0.044,1.423-0.029,1.981s0.146,0.778,0.506,1.079
	c0.36,0.301,0.947,0.683,1.454,0.977c0.506,0.293,0.932,0.499,1.351,0.924c0.418,0.426,0.829,1.072,1.357,1.674
	c0.529,0.602,1.175,1.16,1.784,1.681c0.608,0.521,1.181,1.006,1.783,1.454c0.602,0.447,1.233,0.858,1.512,1.365
	c0.279,0.507,0.206,1.108-0.081,1.821c-0.286,0.712-0.785,1.534-1.101,2.238c-0.316,0.705-0.448,1.292-0.044,1.77
	c0.403,0.477,1.343,0.844,1.959,1.027c0.617,0.184,0.91,0.184,1.513-0.382c0.602-0.565,1.512-1.696,2.334-2.599
	c0.822-0.902,1.557-1.578,2.202-1.967c0.646-0.389,1.204-0.492,1.681-0.286c0.478,0.205,0.874,0.719,1.204,1.402
	s0.595,1.534,1.146,2.166c0.55,0.631,1.387,1.042,2.15,1.431s1.453,0.756,2.158,1.145c0.704,0.389,1.424,0.8,2.188,1.005
	s1.57,0.206,2.099,0.22c0.529,0.015,0.778,0.044,1.16,0.543c0.382,0.5,0.896,1.468,1.321,2.291c0.426,0.822,0.764,1.497,1.24,1.857
	c0.478,0.359,1.094,0.404,2.151,0.396c1.057-0.007,2.555-0.066,3.706,0.059c1.153,0.125,1.96,0.433,2.423,0.896
	s0.58,1.079,0.565,1.666s-0.162,1.145-0.676,1.395s-1.395,0.191-2.114,0.206c-0.719,0.015-1.277,0.103-1.894,0.543
	c-0.617,0.44-1.292,1.233-1.644,2.011c-0.353,0.778-0.383,1.541-0.03,2.378s1.087,1.747,2.188,2.158
	c1.102,0.411,2.569,0.323,3.773,0.03c1.204-0.294,2.143-0.793,2.642-1.513s0.559-1.659,0.822-2.275
	c0.265-0.617,0.734-0.91,1.557-1.115c0.822-0.206,1.996-0.323,3.2-0.294s2.438,0.206,3.685,0.939
	c1.248,0.734,2.511,2.026,3.348,2.965c0.837,0.94,1.247,1.527,1.057,2.291c-0.191,0.763-0.983,1.703-1.674,2.496
	c-0.689,0.792-1.277,1.438-1.894,2.055c-0.616,0.616-1.263,1.204-2.07,1.174c-0.807-0.029-1.776-0.675-2.716-1.336
	s-1.85-1.336-2.745-1.776s-1.776-0.646-2.643-0.749c-0.865-0.103-1.718-0.103-2.451,0.088c-0.734,0.19-1.351,0.572-1.791,1.027
	s-0.705,0.983-1.189,1.116s-1.188-0.132-1.673-0.279c-0.484-0.147-0.749-0.176-1.087,0.161s-0.749,1.042-1.013,1.615
	c-0.265,0.573-0.382,1.013-0.499,1.879c-0.118,0.866-0.235,2.159-0.104,3.113c0.133,0.954,0.515,1.571,1.116,2.275
	s1.424,1.497,2.055,2.261c0.632,0.764,1.072,1.498,1.277,2.173c0.206,0.676,0.177,1.292-0.088,1.923
	c-0.264,0.631-0.763,1.277-1.967,2.085c-1.204,0.807-3.112,1.776-4.302,2.408c-1.188,0.631-1.658,0.924-2.334,0.969
	c-0.675,0.044-1.556-0.162-2.363-0.088c-0.808,0.073-1.541,0.425-3.142,1.189c-1.601,0.763-4.066,1.938-5.696,2.774
	s-2.422,1.336-2.804,2.613c-0.382,1.277-0.353,3.332-0.323,4.83s0.059,2.437,0.411,3.083c0.353,0.646,1.027,0.998,2.173,1.335
	s2.76,0.661,4.741,0.939c1.982,0.279,4.331,0.514,5.696,0.25c1.365-0.264,1.747-1.027,2.188-1.806
	c0.44-0.778,0.939-1.571,1.732-2.084c0.793-0.514,1.879-0.749,2.672-1.028c0.793-0.279,1.292-0.602,1.336-1.292
	s-0.367-1.747-0.47-2.481c-0.103-0.734,0.103-1.146,0.881-1.351c0.778-0.206,2.129-0.206,3.376,0.029
	c1.248,0.235,2.394,0.705,3.406,1.38s1.894,1.556,2.672,2.1c0.778,0.543,1.453,0.749,2.423,0.792c0.969,0.044,2.23-0.074,3.2,0.073
	c0.969,0.147,1.644,0.558,2.128,1.248s0.778,1.659,1.102,2.378c0.322,0.719,0.675,1.189,1.159,1.453
	c0.485,0.264,1.102,0.323,1.85,0.587c0.749,0.264,1.63,0.734,2.422,1.483c0.793,0.749,1.497,1.776,2.202,2.481
	c0.705,0.705,1.409,1.086,2.04,1.512c0.632,0.426,1.189,0.896,2.056,0.984c0.866,0.088,2.041-0.206,3.406-0.602
	s2.921-0.896,4.198-0.925c1.277-0.03,2.275,0.411,3.597,1.086c1.321,0.676,2.965,1.585,4.228,2.29
	c1.263,0.705,2.144,1.204,3.523,1.233s3.259-0.411,5.55-0.852c2.29-0.44,4.991-0.881,7.546-1.365
	c2.554-0.484,4.961-1.013,5.593-1.63c0.632-0.616-0.514-1.321-1.718-1.849s-2.466-0.881-3.42-1.585
	c-0.955-0.705-1.601-1.762-3.01-2.789c-1.409-1.028-3.582-2.026-5.109-2.716c-1.526-0.69-2.407-1.072-4.081-1.366
	c-1.673-0.294-4.14-0.499-5.901-0.675s-2.818-0.323-3.875-0.822c-1.058-0.499-2.114-1.351-2.584-2.055s-0.353-1.262,0.689-1.762
	c1.043-0.499,3.01-0.939,4.64-0.778c1.629,0.161,2.921,0.925,3.904,1.526c0.983,0.603,1.659,1.042,2.687,1.233
	c1.028,0.191,2.408,0.132,3.406,0.396c0.998,0.264,1.615,0.851,2.716,1.277s2.687,0.69,4.947,0.617
	c2.261-0.074,5.197-0.485,6.959-0.734s2.349-0.337,2.466-0.749s-0.234-1.146-0.969-2.628s-1.85-3.714-2.687-5.021
	c-0.837-1.307-1.395-1.689-2.231-1.938c-0.837-0.25-1.952-0.367-2.745-0.47c-0.793-0.103-1.263-0.191-1.806-0.734
	c-0.544-0.543-1.16-1.542-1.908-2.32c-0.749-0.778-1.63-1.336-2.07-2.011s-0.44-1.468-0.616-2.334
	c-0.177-0.866-0.528-1.806-1.043-2.599c-0.514-0.792-1.188-1.438-1.864-1.791c-0.675-0.352-1.351-0.411-1.996-0.44
	c-0.646-0.029-1.263-0.029-2.085-0.499s-1.85-1.409-2.467-2.246c-0.616-0.837-0.821-1.571-1.086-2.129
	c-0.264-0.558-0.587-0.94-0.969-0.969c-0.382-0.029-0.822,0.293-1.615,0.617s-1.938,0.646-2.936,0.999
	c-0.998,0.352-1.85,0.734-2.54,0.778c-0.689,0.044-1.219-0.25-1.6-0.866c-0.382-0.616-0.617-1.556-1.028-2.216
	s-0.998-1.043-1.674-1.366c-0.675-0.323-1.438-0.587-2.04-0.851c-0.602-0.265-1.042-0.529-0.837-0.866
	c0.205-0.338,1.058-0.749,1.674-1.321c0.616-0.573,0.998-1.307,1.071-1.82c0.073-0.514-0.161-0.808-0.514-0.939
	c-0.353-0.133-0.822-0.103-1.277-0.323s-0.895-0.69-1.277-1.512c-0.381-0.822-0.704-1.997-0.748-2.863
	c-0.044-0.866,0.19-1.423,0.836-1.966c0.646-0.543,1.703-1.072,2.672-1.145c0.969-0.074,1.851,0.308,2.438,0.954
	s0.881,1.556,1.307,2.07s0.983,0.631,1.894,0.484c0.91-0.146,2.173-0.558,3.083-1.013c0.91-0.455,1.468-0.955,1.938-0.969
	s0.852,0.455,1.027,0.999c0.177,0.543,0.147,1.16,0.074,1.894s-0.191,1.585,0.073,2.525c0.264,0.939,0.91,1.967,1.438,2.686
	s0.939,1.131,2.394,1.41c1.453,0.278,3.948,0.426,6.092,0.572c2.144,0.147,3.935,0.293,4.683,0.015
	c0.749-0.279,0.456-0.983,0.191-1.703c-0.264-0.72-0.499-1.454-1.263-2.099c-0.764-0.646-2.055-1.204-3.186-1.82
	c-1.13-0.617-2.1-1.292-2.378-1.718c-0.279-0.426,0.132-0.602,0.587-0.852s0.954-0.572,1.395-0.705s0.822-0.073,1.586-0.265
	c0.763-0.191,1.908-0.631,2.774-1.13c0.866-0.5,1.453-1.058,2.055-1.645c0.603-0.587,1.219-1.204,1.321-1.644
	c0.104-0.44-0.308-0.705-1.101-1.174c-0.793-0.47-1.967-1.145-2.877-1.938c-0.91-0.793-1.557-1.703-1.351-2.496
	c0.205-0.793,1.263-1.468,2.157-1.938c0.896-0.47,1.63-0.734,1.953-1.262c0.323-0.529,0.234-1.321,0.015-2.055
	c-0.221-0.734-0.572-1.41-1.086-2.07c-0.514-0.661-1.189-1.307-1.908-1.674c-0.72-0.367-1.483-0.455-3.348-0.47
	s-4.83,0.044-6.563-0.044c-1.732-0.088-2.231-0.323-2.804-0.866c-0.572-0.543-1.219-1.395-2.29-1.967
	c-1.072-0.572-2.569-0.866-3.655-1.057c-1.087-0.191-1.762-0.279-2.657-0.073s-2.011,0.705-2.907,1.204
	c-0.896,0.499-1.57,0.999-2.305,1.086c-0.733,0.088-1.526-0.234-2.437-0.602c-0.91-0.368-1.938-0.778-2.995-1.116
	c-1.057-0.337-2.143-0.602-3.068-0.705c-0.925-0.103-1.688-0.044-2.04,0.294c-0.353,0.337-0.294,0.954-0.176,1.762
	c0.117,0.807,0.293,1.806,0.19,2.583s-0.484,1.336-1.058,1.732c-0.572,0.396-1.336,0.631-1.996,0.528s-1.219-0.543-1.336-1.072
	s0.205-1.145,0.499-1.688c0.294-0.543,0.559-1.013,0.617-1.688c0.059-0.676-0.089-1.557-0.353-2.1
	c-0.265-0.543-0.646-0.749-1.219-0.852s-1.336-0.103-1.923-0.103s-0.999,0-1.747-0.338c-0.749-0.337-1.835-1.013-2.467-1.6
	c-0.631-0.587-0.807-1.086-0.822-1.938c-0.015-0.851,0.133-2.055,0.5-2.862c0.367-0.808,0.954-1.219,1.718-1.483
	c0.763-0.264,1.702-0.382,2.539-0.455s1.57-0.103,2.231-0.382s1.248-0.808,1.497-1.6c0.25-0.793,0.161-1.85-0.382-2.584
	s-1.542-1.145-2.261-1.351c-0.72-0.206-1.16-0.206-1.674-0.206s-1.102,0-1.513-0.719s-0.646-2.158-1.188-3.347
	c-0.544-1.189-1.396-2.128-2.158-2.657c-0.764-0.528-1.438-0.646-1.923-0.352c-0.484,0.293-0.778,0.999-1.469,2.07
	c-0.689,1.072-1.776,2.51-2.657,3.538c-0.881,1.027-1.556,1.644-2.422,1.806s-1.923-0.132-2.524-0.808
	c-0.603-0.675-0.749-1.732-0.03-2.525c0.72-0.792,2.306-1.321,3.127-2.202c0.822-0.88,0.881-2.114,0.778-3.288
	c-0.103-1.175-0.367-2.291-1.219-2.907c-0.852-0.617-2.29-0.734-3.186-0.528c-0.896,0.205-1.248,0.734-1.645,1.688
	c-0.396,0.954-0.836,2.334-1.32,3.112s-1.014,0.954-1.277,0.602c-0.265-0.353-0.265-1.233-0.279-2.026
	c-0.015-0.793-0.044-1.498-0.588-1.894c-0.542-0.397-1.6-0.484-2.392-0.146c-0.793,0.337-1.321,1.101-1.733,1.762
	c-0.41,0.66-0.704,1.218-1.027,1.438s-0.675,0.103-1.115-0.205c-0.44-0.309-0.97-0.808-1.014-1.718
	c-0.044-0.911,0.396-2.231,0.939-3.67c0.544-1.438,1.189-2.995,0.235-4.287c-0.954-1.292-3.509-2.319-5.065-2.583
	c-1.556-0.264-2.113,0.235-2.246,0.881c-0.132,0.646,0.162,1.438-0.309,2.26c-0.469,0.823-1.702,1.674-2.643,2.569
	c-0.938,0.896-1.585,1.835-2.04,1.879c-0.455,0.044-0.719-0.808-1.013-2.026c-0.294-1.219-0.617-2.804-1.321-3.259
	c-0.705-0.455-1.791,0.22-2.774,0.646s-1.865,0.602-2.511,0.411c-0.646-0.19-1.058-0.749-1.409-1.306
	c-0.353-0.558-0.646-1.116-0.514-1.806c0.132-0.69,0.689-1.512,0.837-2.525c0.146-1.013-0.118-2.217-0.382-2.936
	c-0.265-0.72-0.528-0.955-1.204-0.999c-0.675-0.044-1.762,0.103-2.687,0.529s-1.688,1.13-2.672,1.41s-2.188,0.132-3.142,0.132
	s-1.658,0.147-2.011,0.72s-0.353,1.571-0.221,2.906c0.132,1.336,0.396,3.01,0.132,3.935c-0.264,0.925-1.057,1.101-1.938,1.057
	c-0.881-0.044-1.85-0.308-2.848-0.073s-2.026,0.969-2.774,1.512c-0.749,0.543-1.219,0.895-1.923,0.734
	c-0.705-0.162-1.645-0.837-2.203-1.527c-0.558-0.69-0.733-1.395-0.47-2.378c0.265-0.984,0.97-2.246,1.277-3.333
	c0.309-1.086,0.221-1.996-0.381-3.2c-0.603-1.204-1.718-2.702-2.922-3.861c-1.204-1.16-2.496-1.982-3.2-2.936
	c-0.705-0.954-0.822-2.041-1.601-2.701c-0.778-0.661-2.217-0.896-3.391-0.807c-1.175,0.087-2.085,0.499-3.112,1.512
	c-1.028,1.013-2.173,2.628-2.966,4.668c-0.793,2.04-1.233,4.507-1.629,6.826s-0.749,4.492-0.676,6.225
	c0.074,1.732,0.573,3.024,1.146,4.066s1.218,1.835,1.894,3.024s1.38,2.775,2.114,4.713c0.734,1.938,1.498,4.228,1.806,5.754
	c0.309,1.527,0.162,2.29-0.426,2.833c-0.587,0.543-1.614,0.866-2.29,0.499c-0.675-0.367-0.998-1.424-1.791-3.053
	c-0.792-1.63-2.055-3.832-3.156-5.608c-1.101-1.777-2.04-3.127-2.979-4.463c-0.94-1.336-1.879-2.657-2.261-3.979
	c-0.381-1.321-0.206-2.643,0.073-4.184c0.279-1.542,0.661-3.303,1.057-5.432c0.396-2.129,0.808-4.624,1.482-6.665
	c0.676-2.041,1.615-3.626,1.747-4.771c0.132-1.146-0.543-1.85-1.556-2.247c-1.013-0.396-2.364-0.484-3.597-0.426
	s-2.349,0.264-3.42,0.631c-1.072,0.367-2.099,0.896-2.936,1.541c-0.837,0.646-1.483,1.41-2.011,2.247
	c-0.528,0.836-0.939,1.747-1.42,3.636C376.628,150.653,376.079,153.522,375.466,156.571L375.466,156.571z M348.667,109.472
	c1.116,0.146,2.584,0.059,3.67,0.044c1.086-0.014,1.792,0.044,2.937,0.309c1.145,0.264,2.73,0.734,3.816,1.438
	c1.086,0.705,1.674,1.645,1.938,3.127c0.264,1.482,0.206,3.508,0.206,5.784s0.059,4.8,0.323,6.445
	c0.265,1.644,0.734,2.407,1.307,3.039s1.248,1.13,2.07,1.395c0.822,0.264,1.791,0.294,3.156,0.353
	c1.366,0.058,3.127,0.146,4.506,0.352c1.38,0.205,2.379,0.528,3.083,1.306s1.115,2.011,1.629,2.628
	c0.514,0.617,1.13,0.617,1.938,0.558c0.808-0.059,1.806-0.176,2.393-0.661c0.587-0.484,0.764-1.336,1.454-1.923
	c0.69-0.587,1.894-0.91,3.67-1.16c1.776-0.25,4.125-0.426,6.342-0.602c2.217-0.176,4.301-0.353,6.019-0.749
	c1.718-0.396,3.068-1.013,4.199-1.306c1.13-0.294,2.04-0.265,2.906-0.221s1.688,0.103,2.129-0.572
	c0.44-0.676,0.499-2.085,0.587-3.979c0.088-1.894,0.206-4.272-0.059-6.209c-0.265-1.938-0.91-3.436-1.542-4.581
	c-0.631-1.146-1.247-1.938-1.79-2.393c-0.544-0.455-1.014-0.573-1.732-0.793c-0.72-0.22-1.688-0.543-2.35-0.704
	c-0.66-0.162-1.013-0.162-1.482-0.177c-0.47-0.014-1.057-0.044-1.762,0.308c-0.704,0.353-1.526,1.087-2.158,1.586
	s-1.072,0.763-1.923,0.91s-2.114,0.176-3.112,0.47c-0.998,0.293-1.732,0.852-2.995,1.703c-1.263,0.851-3.053,1.996-4.345,3.039
	s-2.085,1.982-3.098,2.202c-1.013,0.22-2.247-0.279-3.964-0.734c-1.718-0.455-3.92-0.866-5.549-1.174
	c-1.629-0.309-2.687-0.514-3.626-1.218c-0.939-0.705-1.762-1.909-1.718-2.907c0.044-0.999,0.954-1.792,1.938-2.276
	s2.041-0.661,2.569-0.896c0.529-0.235,0.529-0.528,0.309-1.101s-0.661-1.424-1.365-2.114s-1.674-1.219-2.731-1.483
	c-1.057-0.264-2.202-0.264-3.229-0.587c-1.027-0.323-1.938-0.969-2.672-1.821c-0.734-0.851-1.292-1.908-1.967-2.304
	c-0.676-0.396-1.468-0.132-2.217,0.161c-0.749,0.293-1.454,0.616-2.29,0.352c-0.837-0.264-1.806-1.116-2.878-1.703
	c-1.071-0.587-2.246-0.91-3.303-0.983c-1.057-0.074-1.997,0.103-2.848,0.646c-0.851,0.543-1.615,1.453-1.438,2.892
	c0.176,1.438,1.292,3.406,2.231,4.581C346.788,108.943,347.551,109.325,348.667,109.472L348.667,109.472z M349.152,119.873
	c-0.646,0.521-1.645,1.211-2.246,1.923c-0.602,0.712-0.808,1.446-1.138,2.393c-0.331,0.947-0.785,2.106-1.079,2.929
	c-0.294,0.822-0.426,1.306-0.411,1.739c0.014,0.433,0.176,0.815,0.477,1.38c0.301,0.565,0.741,1.313,1.233,1.806
	c0.492,0.492,1.035,0.727,1.579,0.807c0.543,0.081,1.086,0.007,1.497,0.11c0.411,0.103,0.69,0.382,0.925,0.69
	s0.426,0.646,0.991,0.808c0.565,0.161,1.505,0.146,2.621,0.139s2.408-0.007,3.208-0.154c0.8-0.146,1.108-0.44,1.343-0.939
	c0.235-0.499,0.396-1.204,0.272-2.943c-0.125-1.74-0.536-4.514-0.822-6.144c-0.287-1.629-0.448-2.114-0.896-2.437
	c-0.448-0.323-1.182-0.485-1.673-0.933c-0.492-0.448-0.742-1.182-0.866-1.806c-0.125-0.624-0.125-1.138-0.448-1.395
	c-0.323-0.257-0.969-0.257-1.578-0.081c-0.609,0.176-1.182,0.528-1.615,0.881C350.092,119,349.799,119.352,349.152,119.873
	L349.152,119.873z M378.648,70.437c0.852-0.293,1.644-0.44,2.422-0.396c0.778,0.044,1.542,0.279,2.07,0.734
	c0.529,0.455,0.822,1.13,1.292,1.791c0.47,0.66,1.116,1.307,1.703,1.556c0.587,0.25,1.116,0.103,1.307-0.514
	c0.191-0.617,0.044-1.703-0.015-2.716c-0.059-1.013-0.029-1.953-0.881-3.289c-0.852-1.336-2.584-3.068-3.744-4.14
	c-1.16-1.071-1.747-1.482-2.275-1.233c-0.529,0.25-0.999,1.16-1.38,2.026c-0.381,0.866-0.675,1.688-1.248,2.041
	c-0.572,0.352-1.423,0.235-2.466,0.118c-1.042-0.118-2.275-0.235-3.289-0.764c-1.013-0.528-1.806-1.468-2.642-2.437
	c-0.837-0.969-1.718-1.968-1.997-2.775c-0.279-0.808,0.044-1.424,0.661-1.835s1.527-0.617,2.026-1.072
	c0.5-0.455,0.587-1.16,0.587-1.879c0-0.719-0.088-1.453,0.484-2.451c0.573-0.999,1.806-2.261,3.112-3.523
	c1.307-1.263,2.687-2.525,3.817-3.421c1.13-0.896,2.011-1.424,2.789-1.645s1.454-0.132,2.393-0.323
	c0.939-0.191,2.144-0.661,3.112-1.233c0.969-0.573,1.703-1.248,2.364-1.747s1.248-0.822,2.128-0.91s2.055,0.059,3.098-0.25
	s1.953-1.072,2.774-1.756c0.823-0.684,1.556-1.29,2.658-1.592c1.101-0.303,2.569-0.303,4.213-0.303c1.645,0,3.465,0,4.669,0.171
	c1.203,0.17,1.79,0.512,2.378,1.123c0.587,0.611,1.174,1.492,1.541,2.432c0.367,0.939,0.514,1.938,0.059,2.921
	s-1.512,1.953-2.305,2.819c-0.793,0.866-1.321,1.629-1.512,2.422c-0.191,0.792-0.044,1.614,0.44,2.158
	c0.484,0.543,1.307,0.808,1.952,0.455c0.646-0.352,1.116-1.321,1.63-2.041c0.514-0.719,1.071-1.189,1.659-1.218
	c0.587-0.03,1.203,0.381,1.468,1.248c0.264,0.866,0.176,2.188-0.235,4.448s-1.145,5.461-1.776,8.074
	c-0.631,2.613-1.159,4.639-1.82,5.945c-0.66,1.307-1.453,1.894-2.378,2.496c-0.925,0.602-1.981,1.219-2.701,1.835
	c-0.72,0.616-1.102,1.233-0.822,2.011c0.278,0.778,1.219,1.717,1.791,2.466c0.572,0.749,0.778,1.307,0.323,2.115
	c-0.455,0.807-1.571,1.863-2.305,2.539c-0.734,0.675-1.086,0.969-1.351,1.688c-0.265,0.719-0.44,1.864-0.749,2.862
	s-0.748,1.85-1.292,2.687c-0.543,0.837-1.189,1.659-1.762,2.188c-0.572,0.528-1.071,0.763-1.791,0.675
	c-0.719-0.088-1.658-0.499-2.422-0.499c-0.763,0-1.35,0.411-1.6,0.954c-0.249,0.543-0.161,1.218,0.294,2.128
	s1.277,2.055,2.261,2.305c0.983,0.25,2.129-0.396,3.685-0.94c1.557-0.543,3.523-0.983,4.918-1.086
	c1.395-0.103,2.217,0.132,2.643,0.749s0.455,1.615,0.117,2.804c-0.337,1.188-1.042,2.569-1.703,3.611
	c-0.66,1.042-1.276,1.747-2.774,2.745c-1.497,0.998-3.875,2.29-5.358,2.79c-1.482,0.499-2.07,0.205-2.921-0.808
	c-0.852-1.013-1.967-2.746-2.878-3.993c-0.91-1.248-1.614-2.011-2.231-2.393c-0.616-0.382-1.145-0.382-1.645,0.044
	c-0.499,0.425-0.969,1.277-1.6,2.525c-0.631,1.248-1.424,2.892-2.114,3.817c-0.69,0.925-1.277,1.13-1.674,1.013
	c-0.396-0.117-0.602-0.558-0.969-1.336c-0.367-0.778-0.896-1.894-1.498-2.363c-0.602-0.47-1.277-0.293-1.967,0.044
	c-0.69,0.337-1.395,0.837-2.408,1.086c-1.013,0.25-2.334,0.25-3.289,0.382c-0.954,0.132-1.542,0.396-2.1,0.47
	c-0.558,0.073-1.086-0.044-1.57-0.396c-0.485-0.353-0.925-0.94-0.925-1.85c0-0.91,0.44-2.144,1.057-3.156
	c0.617-1.013,1.41-1.806,1.879-2.364c0.47-0.558,0.617-0.88,0.675-1.571c0.059-0.69,0.029-1.747-0.103-2.525
	c-0.132-0.778-0.367-1.277-0.617-1.85c-0.249-0.573-0.514-1.219-0.264-2.188c0.25-0.969,1.013-2.26,1.762-3.038
	c0.749-0.778,1.483-1.043,1.967-0.778c0.485,0.264,0.719,1.057,0.837,2.114s0.118,2.378,0.455,3.45
	c0.337,1.071,1.013,1.894,2.158,2.437c1.145,0.543,2.76,0.808,4.433,0.543c1.673-0.265,3.406-1.057,4.522-2.129
	c1.115-1.071,1.614-2.422,1.541-3.273c-0.073-0.852-0.719-1.204-1.468-1.086c-0.749,0.117-1.601,0.705-2.334,1.277
	c-0.734,0.573-1.351,1.13-2.334,1.307c-0.983,0.176-2.334-0.03-3.039-0.514c-0.705-0.484-0.763-1.248-0.118-2.422
	c0.646-1.174,1.997-2.76,2.613-4.007c0.617-1.248,0.5-2.158,0.088-2.995c-0.411-0.836-1.115-1.6-1.908-1.806
	c-0.792-0.206-1.673,0.146-2.452,0.939c-0.778,0.792-1.453,2.026-2.217,2.628c-0.763,0.602-1.614,0.573-2.084,0.118
	c-0.47-0.456-0.558-1.336-0.602-2.466c-0.044-1.13-0.044-2.511,0.367-3.861s1.233-2.671,2.099-3.552
	C376.886,71.171,377.796,70.731,378.648,70.437L378.648,70.437z M369.415,80.904c-0.484,0.543-1.454,0.514-2.349,0.44
	c-0.896-0.073-1.718-0.19-2.54-0.205c-0.822-0.015-1.644,0.073-2.407,0.279c-0.764,0.206-1.468,0.528-2.144,0.573
	c-0.675,0.044-1.321-0.191-1.747-0.646s-0.631-1.13-0.69-1.879c-0.059-0.749,0.029-1.571,0.22-2.349
	c0.191-0.778,0.484-1.512,0.352-2.055c-0.132-0.543-0.689-0.896-1.248-1.219c-0.558-0.323-1.116-0.617-1.365-1.395
	c-0.25-0.778-0.191-2.041-0.162-3.024s0.029-1.688-0.323-2.187c-0.353-0.5-1.057-0.793-1.659-1.292
	c-0.602-0.5-1.101-1.204-1.321-2.363c-0.221-1.16-0.162-2.775-0.132-3.964c0.029-1.189,0.029-1.953,0.573-2.188
	c0.543-0.235,1.629,0.059,2.554,0.396c0.925,0.337,1.688,0.719,2.114,1.38c0.425,0.66,0.514,1.6,0.998,2.129
	c0.484,0.528,1.365,0.646,2.349,0.749c0.983,0.103,2.07,0.19,3.024,0.617c0.954,0.425,1.776,1.189,2.569,2.216
	c0.792,1.028,1.556,2.319,2.188,3.494c0.631,1.175,1.13,2.231,1.453,3.201c0.323,0.969,0.47,1.85,0.47,2.921
	s-0.146,2.334-0.22,3.523C369.899,79.246,369.899,80.361,369.415,80.904L369.415,80.904z M367.288,90.732
	c-0.792-0.521-2.128-1.035-3.127-1.182c-0.998-0.147-1.659,0.073-1.997,0.491c-0.337,0.418-0.352,1.035-0.359,1.659
	c-0.007,0.624-0.007,1.255,0.103,1.74c0.11,0.484,0.33,0.822,0.771,1.248c0.44,0.425,1.101,0.939,1.681,1.321
	c0.58,0.382,1.079,0.631,1.732,0.668c0.653,0.036,1.46-0.14,1.997-0.478c0.536-0.337,0.8-0.836,0.837-1.512
	c0.036-0.675-0.154-1.527-0.375-2.217C368.33,91.782,368.081,91.253,367.288,90.732L367.288,90.732z M351.293,90.608
	c-0.507,0.293-0.903,0.646-1.211,0.998c-0.309,0.352-0.528,0.705-0.594,1.145c-0.066,0.44,0.021,0.969,0.117,1.563
	c0.096,0.594,0.198,1.255,0.418,1.571c0.22,0.315,0.558,0.286,1.483,0.198c0.925-0.088,2.437-0.235,3.604-0.668
	c1.167-0.433,1.989-1.152,2.349-2.106c0.36-0.955,0.257-2.144-0.051-2.9c-0.309-0.756-0.823-1.079-1.586-1.101
	c-0.763-0.022-1.776,0.257-2.591,0.514C352.417,90.079,351.8,90.314,351.293,90.608L351.293,90.608z M339.931,77.108
	c-0.066,0.844-0.066,1.549,0.22,2.65c0.286,1.101,0.858,2.599,1.159,3.414c0.301,0.814,0.331,0.947,0.434,1.395
	c0.103,0.448,0.279,1.211,0.616,1.864s0.837,1.196,1.388,1.916c0.55,0.719,1.152,1.614,1.82,2.202
	c0.668,0.587,1.402,0.866,1.975,0.778c0.572-0.088,0.983-0.543,1.181-1.02c0.198-0.478,0.184-0.977,0.521-1.483
	s1.028-1.021,1.872-1.623c0.844-0.602,1.843-1.292,2.562-1.93s1.159-1.226,0.969-2.151c-0.191-0.925-1.013-2.188-1.755-3.295
	c-0.741-1.108-1.402-2.063-2.356-2.79c-0.955-0.727-2.202-1.226-3.098-1.74c-0.896-0.514-1.438-1.042-1.989-1.307
	s-1.108-0.264-1.637-0.492c-0.529-0.228-1.028-0.683-1.438-0.866c-0.412-0.183-0.734-0.096-1.072,0.228
	c-0.338,0.323-0.69,0.881-0.932,1.651C340.129,75.281,339.997,76.265,339.931,77.108L339.931,77.108z M326.257,80.214
	c-1.087-0.162-1.953,0.088-2.599,0.154c-0.646,0.066-1.072-0.051-1.366-0.396c-0.293-0.345-0.455-0.917-0.639-1.394
	c-0.184-0.478-0.389-0.859-0.139-1.211c0.25-0.353,0.954-0.675,1.637-1.108s1.344-0.976,1.762-1.402
	c0.418-0.426,0.595-0.734,0.617-1.329c0.022-0.595-0.11-1.476,0.059-2.026s0.639-0.771,1.468-0.888
	c0.829-0.118,2.019-0.132,3.156-0.081s2.224,0.169,3.061,0.47c0.836,0.301,1.424,0.786,1.938,1.167
	c0.514,0.382,0.954,0.661,1.24,1.211c0.286,0.551,0.419,1.373,0.382,2.481c-0.037,1.108-0.242,2.503-0.242,3.619
	c0,1.116,0.205,1.953,0.47,2.753c0.264,0.8,0.587,1.563,0.83,2.136c0.242,0.573,0.403,0.954,0.228,1.402
	c-0.176,0.448-0.69,0.962-1.373,1.343c-0.683,0.382-1.534,0.631-2.18,0.536c-0.646-0.096-1.086-0.536-1.233-1.13
	c-0.147-0.595,0-1.343-0.059-1.982c-0.059-0.639-0.323-1.167-0.911-1.651c-0.587-0.485-1.497-0.925-2.605-1.432
	C328.649,80.947,327.343,80.375,326.257,80.214L326.257,80.214z M321.948,96.428c-1.387,0.08-3.208,0.051-4.463-0.015
	c-1.255-0.066-1.945-0.169-2.371-0.624s-0.587-1.263-0.47-2.356c0.117-1.094,0.514-2.474,0.675-3.883
	c0.161-1.409,0.088-2.848,0.301-3.677c0.213-0.83,0.712-1.05,1.674-0.808s2.385,0.947,3.589,2.129
	c1.204,1.182,2.188,2.84,2.878,4.382s1.086,2.966,0.808,3.773C324.289,96.156,323.335,96.347,321.948,96.428L321.948,96.428z
	 M318.879,106.82c-0.595-0.403-1.167-0.785-1.49-1.548c-0.323-0.764-0.396-1.909,0.301-2.635c0.697-0.727,2.166-1.035,3.655-1.028
	c1.49,0.008,3.002,0.33,4.082,1.05c1.079,0.719,1.725,1.835,1.769,2.812c0.044,0.976-0.514,1.813-1.218,2.437
	s-1.556,1.035-2.459,1.028c-0.903-0.008-1.857-0.434-2.643-0.859S319.474,107.224,318.879,106.82L318.879,106.82z M321.844,109.226
	c-1.064-0.397-2.591-0.705-3.538-0.742c-0.947-0.037-1.314,0.198-1.138,0.837s0.895,1.681,1.673,2.349
	c0.778,0.667,1.615,0.961,2.334,1.013c0.719,0.051,1.321-0.14,1.791-0.528c0.47-0.389,0.808-0.977,0.675-1.512
	C323.51,110.106,322.908,109.622,321.844,109.226L321.844,109.226z M333.758,106.944c-0.705,0.646-1.527,1.527-2.408,1.908
	c-0.881,0.382-1.82,0.264-2.29,0.705s-0.47,1.439-0.646,2.173s-0.529,1.204-0.955,1.659c-0.425,0.456-0.925,0.896-1.673,1.321
	s-1.747,0.837-2.099,1.483c-0.353,0.646-0.059,1.527,0.308,2.378s0.807,1.673,1.615,1.717s1.981-0.69,2.833-0.91
	s1.38,0.074,1.894,0.837s1.013,1.997,1.263,3.156s0.25,2.246,0.587,2.965c0.338,0.72,1.013,1.072,2.437,1.101
	c1.424,0.029,3.597-0.264,5.021-0.69c1.424-0.426,2.099-0.983,2.349-1.864c0.25-0.881,0.074-2.085-0.176-3.23
	c-0.25-1.145-0.573-2.231-0.646-3.464c-0.074-1.233,0.103-2.613,0.19-4.169c0.088-1.556,0.088-3.289-0.117-4.639
	c-0.206-1.35-0.617-2.319-1.16-2.906c-0.543-0.587-1.219-0.793-1.982-0.896c-0.763-0.103-1.615-0.103-2.334,0.103
	C335.05,105.887,334.463,106.298,333.758,106.944L333.758,106.944z M297.976,67.299c-0.712,0.11-1.123,0.492-1.387,0.925
	c-0.265,0.433-0.382,0.917-0.272,1.424c0.11,0.506,0.448,1.035,0.866,1.593c0.418,0.558,0.917,1.145,1.527,1.673
	s1.329,0.999,2.004,1.292s1.307,0.411,2.026,0.536c0.72,0.125,1.527,0.257,2.209,0.507s1.24,0.616,1.747,0.991
	c0.506,0.374,0.961,0.756,1.417,0.859c0.455,0.103,0.91-0.074,1.387-0.433c0.478-0.36,0.977-0.903,1.314-1.754
	c0.338-0.852,0.514-2.011,0.154-3.068s-1.255-2.011-1.96-2.458c-0.705-0.448-1.218-0.389-1.835-0.176
	c-0.617,0.212-1.336,0.58-1.967,0.822c-0.631,0.242-1.174,0.359-1.593,0.404c-0.418,0.044-0.712,0.015-1.145-0.162
	c-0.434-0.176-1.006-0.499-1.343-0.814c-0.338-0.316-0.44-0.624-0.47-0.947c-0.029-0.323,0.015-0.661-0.47-0.91
	C299.701,67.351,298.688,67.189,297.976,67.299L297.976,67.299z M290.284,76.746c-0.565,0.47-0.638,1.321-0.372,2.171
	c0.267,0.85,0.874,1.7,1.148,2.433s0.215,1.349,0.208,1.951s0.037,1.189,0.542,2.02c0.503,0.831,1.467,1.905,2.338,2.963
	s1.649,2.101,2.435,2.673c0.786,0.573,1.578,0.675,2.4,0.484c0.822-0.19,1.673-0.675,2.077-1.292s0.359-1.365,0.573-1.792
	c0.212-0.425,0.682-0.528,1.233-0.682c0.55-0.154,1.182-0.36,1.6-0.609c0.418-0.25,0.624-0.543,0.837-0.852s0.433-0.631,0.69-0.976
	c0.257-0.345,0.551-0.712,0.631-1.277c0.081-0.565-0.051-1.329-0.176-2.048s-0.242-1.395-0.55-1.784
	c-0.309-0.389-0.808-0.492-1.549-0.69c-0.741-0.198-1.725-0.492-2.51-0.675c-0.785-0.184-1.373-0.257-1.798-0.22
	s-0.69,0.184-1.057,0.558c-0.367,0.374-0.837,0.976-1.314,1.351c-0.477,0.374-0.961,0.521-1.358,0.499s-0.705-0.213-0.917-0.72
	c-0.213-0.506-0.331-1.329-0.719-2.069c-0.39-0.742-1.05-1.402-1.909-1.688C291.906,76.188,290.85,76.276,290.284,76.746
	L290.284,76.746z M315.989,124.031c-0.037,1.101-0.081,2.04-0.015,2.811c0.066,0.771,0.242,1.373,0.558,1.769
	c0.315,0.396,0.771,0.587,1.351,0.572c0.58-0.015,1.284-0.235,1.703-0.829c0.418-0.595,0.551-1.563,0.668-2.613
	c0.118-1.05,0.22-2.18,0.272-3.09c0.051-0.911,0.051-1.601-0.147-2.291s-0.595-1.38-1.079-1.659
	c-0.484-0.279-1.057-0.147-1.607,0.205c-0.551,0.353-1.079,0.925-1.358,1.843C316.055,121.667,316.026,122.93,315.989,124.031
	L315.989,124.031z M280.669,104.233c-0.506,0.814-1.108,1.534-1.695,2.121c-0.587,0.587-1.16,1.042-1.857,1.476
	c-0.698,0.433-1.52,0.844-2.129,1.182s-1.006,0.602-1.343,0.896c-0.338,0.293-0.617,0.617-0.83,0.998
	c-0.213,0.382-0.359,0.822-0.396,1.365c-0.037,0.543,0.037,1.189,0.168,1.784c0.132,0.594,0.323,1.137,0.565,1.6
	c0.242,0.462,0.536,0.844,1.071,1.057c0.536,0.213,1.314,0.257,2.026,0.242c0.712-0.015,1.358-0.088,1.85-0.315
	s0.83-0.609,0.999-1.021c0.168-0.411,0.168-0.851,0.33-1.005s0.484-0.022,0.866,0.264c0.382,0.286,0.822,0.727,1.395,1.248
	c0.572,0.521,1.277,1.123,1.857,1.461s1.035,0.411,2.275,0.243c1.241-0.169,3.267-0.581,4.581-0.786
	c1.313-0.206,1.916-0.206,2.319-0.029s0.609,0.528,0.815,1.027s0.411,1.145,0.492,1.659c0.081,0.514,0.037,0.896-0.294,1.262
	c-0.33,0.367-0.947,0.719-1.6,0.859s-1.343,0.066-1.997,0.088s-1.27,0.14-2.349,0.434c-1.08,0.293-2.621,0.763-3.773,1.247
	c-1.152,0.485-1.916,0.984-2.452,1.49c-0.536,0.507-0.844,1.021-1.094,1.513c-0.25,0.492-0.44,0.961-0.375,1.607
	s0.389,1.468,0.771,1.916c0.382,0.448,0.822,0.521,1.578,0.543c0.756,0.022,1.828-0.007,2.76-0.051s1.725-0.103,2.239-0.228
	c0.514-0.125,0.749-0.315,1.351-0.932s1.571-1.659,2.29-2.202c0.719-0.543,1.189-0.588,3.898-0.918s7.656-0.947,10.335-1.373
	c2.679-0.426,3.09-0.661,3.67-1.182c0.58-0.521,1.328-1.329,1.974-2.004s1.189-1.218,1.688-1.871c0.5-0.653,0.955-1.417,1.248-2.239
	c0.293-0.822,0.426-1.703,0.514-2.525c0.088-0.822,0.132-1.585-0.08-2.327c-0.213-0.741-0.683-1.46-1.263-1.908
	c-0.58-0.448-1.27-0.624-1.85-0.543c-0.58,0.081-1.049,0.418-1.519,0.917s-0.94,1.16-1.446,1.718
	c-0.507,0.558-1.049,1.013-1.512,0.961c-0.463-0.052-0.845-0.609-1.064-1.615c-0.22-1.006-0.279-2.459-0.353-3.913
	c-0.073-1.453-0.162-2.907-0.359-3.993c-0.198-1.086-0.507-1.806-0.947-2.173c-0.44-0.367-1.013-0.382-1.505-0.257
	c-0.492,0.125-0.903,0.389-1.357,0.888c-0.456,0.499-0.955,1.233-1.336,2.004c-0.382,0.771-0.646,1.578-0.8,2.415
	c-0.154,0.837-0.198,1.703-0.081,2.503c0.118,0.8,0.397,1.535,0.8,2.144c0.404,0.609,0.933,1.093,1.358,1.46
	c0.426,0.367,0.749,0.616,0.925,0.969s0.206,0.807,0.213,1.277c0.007,0.47-0.008,0.955-0.243,1.292
	c-0.235,0.338-0.69,0.529-1.284,0.624c-0.595,0.096-1.329,0.096-1.894-0.161c-0.565-0.257-0.962-0.771-1.424-1.498
	c-0.462-0.727-0.991-1.666-1.519-2.305s-1.057-0.977-1.409-1.387c-0.353-0.412-0.529-0.896-0.749-1.725
	c-0.221-0.83-0.485-2.004-0.617-3.009c-0.132-1.006-0.132-1.843-0.836-3.164c-0.705-1.321-2.115-3.127-3.333-4.25
	s-2.246-1.563-3.222-1.798c-0.977-0.235-1.901-0.264-2.628-0.081c-0.727,0.183-1.255,0.58-1.402,1.182
	c-0.147,0.602,0.088,1.409,0,2.268C281.586,102.509,281.176,103.419,280.669,104.233L280.669,104.233z M270.283,108.395
	c-0.764,0.456-1.703,0.528-2.371,0.382c-0.668-0.147-1.064-0.514-1.321-1.16s-0.374-1.571-0.301-2.313
	c0.073-0.741,0.337-1.299,0.807-1.761c0.47-0.463,1.145-0.83,2.026-1.197s1.967-0.734,2.694-0.998
	c0.727-0.264,1.094-0.426,1.468-0.315c0.375,0.11,0.756,0.492,1.028,0.88c0.271,0.389,0.433,0.786,0.323,1.197
	c-0.11,0.411-0.492,0.837-0.939,1.365c-0.447,0.528-0.962,1.159-1.512,1.894C271.634,107.103,271.046,107.94,270.283,108.395
	L270.283,108.395z M270.43,98.294c-0.836,0.337-1.747,0.367-2.407,0.675c-0.661,0.308-1.072,0.896-2.056,1.38
	s-2.54,0.866-3.744,0.646c-1.204-0.22-2.055-1.042-2.687-1.791c-0.631-0.749-1.042-1.424-1.233-2.143
	c-0.191-0.72-0.161-1.483-0.146-2.173c0.014-0.69,0.014-1.307,0.381-1.909c0.367-0.602,1.101-1.189,1.777-1.629
	c0.675-0.44,1.291-0.734,1.893-0.69s1.189,0.426,1.688,0.675s0.91,0.367,1.556,0.117s1.527-0.866,2.246-1.351
	s1.277-0.837,1.556-1.438c0.279-0.602,0.279-1.453,0.734-2.1c0.455-0.646,1.365-1.086,2.364-1.762
	c0.998-0.675,2.084-1.585,2.848-1.981c0.763-0.396,1.204-0.279,2.084-0.396s2.202-0.47,3.611-0.646
	c1.409-0.176,2.907-0.176,3.714-0.073c0.807,0.103,0.925,0.308,1.013,0.689s0.147,0.939,0.235,1.953s0.206,2.481,0.279,3.611
	c0.073,1.13,0.103,1.923-0.279,2.687c-0.382,0.763-1.174,1.497-1.894,2.187c-0.72,0.69-1.366,1.336-2.012,1.806
	c-0.646,0.469-1.292,0.763-1.996,0.91c-0.705,0.146-1.468,0.146-2.217,0.103s-1.482-0.132-2.144,0.029
	c-0.661,0.162-1.248,0.573-1.703,0.778c-0.456,0.206-0.778,0.206-1.321,0.528C272.03,97.311,271.267,97.957,270.43,98.294
	L270.43,98.294z M306.089,139.194c-0.499,0.015-1.086,0.103-1.321,0.792s-0.118,1.982-0.029,3.039
	c0.088,1.057,0.147,1.878,0.573,2.437s1.218,0.852,2.099,1.307s1.85,1.072,2.687,1.674c0.837,0.602,1.542,1.189,2.217,1.556
	c0.675,0.367,1.321,0.514,1.865,0.264c0.543-0.25,0.983-0.896,1.512-1.556c0.528-0.661,1.145-1.336,1.453-2.085
	c0.308-0.749,0.308-1.57,0.22-2.378s-0.264-1.6-0.778-2.246c-0.514-0.646-1.365-1.145-2.114-1.717
	c-0.749-0.573-1.395-1.219-2.129-1.351c-0.734-0.132-1.556,0.25-2.393,0.396c-0.837,0.147-1.688,0.059-2.319-0.014
	C306.999,139.238,306.588,139.179,306.089,139.194L306.089,139.194z M226.683,141.749c-0.514,0.367-1.072,0.807-1.204,1.498
	c-0.133,0.689,0.161,1.629,0.293,2.701c0.132,1.072,0.103,2.276,0.088,3.201c-0.015,0.925-0.015,1.571,0.353,2.451
	c0.367,0.881,1.101,1.997,1.777,2.849c0.675,0.852,1.292,1.438,2.378,1.629s2.642-0.015,4.11-0.499s2.848-1.248,4.184-2.128
	c1.336-0.881,2.628-1.879,4.489-3.292c1.861-1.414,4.291-3.243,7.371-5.283c3.08-2.041,6.809-4.294,10.497-6.595
	c3.688-2.3,7.335-4.649,8.998-6.439c1.662-1.79,1.339-3.023,0.502-4.095s-2.188-1.981-3.127-2.804s-1.468-1.556-2.099-1.938
	c-0.631-0.381-1.365-0.411-2.217-0.529c-0.852-0.117-1.82-0.323-2.437-0.792c-0.616-0.47-0.881-1.204-1.042-1.879
	c-0.162-0.675-0.22-1.292-0.866-1.894s-1.879-1.189-2.848-1.497c-0.969-0.309-1.674-0.338-2.628-0.265
	c-0.954,0.074-2.158,0.25-3.435,0.294c-1.277,0.044-2.628-0.044-3.567,0.103c-0.94,0.146-1.468,0.529-1.82,1.042
	c-0.353,0.514-0.529,1.16-0.705,1.806c-0.176,0.646-0.352,1.292-0.425,1.967c-0.073,0.675-0.044,1.38-0.117,2.173
	c-0.074,0.792-0.25,1.673-0.867,2.906c-0.617,1.233-1.673,2.819-2.774,4.434c-1.101,1.614-2.246,3.259-3.318,4.668
	c-1.071,1.409-2.07,2.584-2.951,3.45c-0.881,0.867-1.645,1.424-2.481,1.674s-1.747,0.191-2.437,0.309
	C227.666,141.088,227.197,141.381,226.683,141.749L226.683,141.749z M263.222,207.088c0.763,0.616,1.6,1.115,2.209,1.504
	c0.609,0.389,0.991,0.668,1.395,0.903c0.404,0.235,0.83,0.426,1.424,0.521c0.594,0.095,1.357,0.095,2.474,0.11
	c1.116,0.015,2.583,0.044,3.868,0.073c1.284,0.029,2.386,0.059,3.567,0.154c1.182,0.095,2.444,0.257,3.421,0.462
	c0.976,0.206,1.666,0.455,2.43,0.624c0.763,0.169,1.6,0.257,2.018,0.176c0.418-0.081,0.418-0.331,0.602-0.727
	c0.184-0.396,0.551-0.939,0.992-1.453c0.44-0.514,0.954-0.999,1.38-1.27c0.425-0.271,0.763-0.33,1.651-0.353
	c0.888-0.022,2.327-0.007,3.178-0.065c0.852-0.059,1.116-0.191,1.439-0.419c0.323-0.228,0.705-0.55,1.064-0.778
	c0.359-0.228,0.697-0.36,1.049-0.433c0.352-0.073,0.72-0.088,1.211-0.015s1.108,0.235,1.739,0.484
	c0.631,0.25,1.277,0.587,1.725,0.836c0.448,0.25,0.697,0.412,0.947,0.778c0.25,0.367,0.499,0.939,0.822,1.534
	s0.72,1.212,1.153,1.564c0.433,0.352,0.903,0.44,1.688,0.396c0.786-0.044,1.887-0.22,2.797-0.278c0.91-0.059,1.629,0,2.393,0.168
	c0.763,0.169,1.571,0.448,2.275,0.543s1.307,0.007,2.18-0.315c0.873-0.323,2.019-0.88,2.796-1.306s1.189-0.72,1.534-1.285
	c0.345-0.565,0.624-1.402,0.624-1.776c0-0.375-0.279-0.287-0.954-0.389c-0.676-0.103-1.748-0.396-2.775-0.565
	c-1.027-0.169-2.011-0.213-2.657-0.375c-0.646-0.162-0.955-0.44-1.358-0.697c-0.403-0.257-0.903-0.492-1.123-0.977
	c-0.22-0.484-0.162-1.218-0.103-1.835c0.059-0.617,0.117-1.116,0.462-1.498c0.345-0.381,0.977-0.646,1.718-0.947
	c0.741-0.301,1.593-0.639,2.305-0.83c0.711-0.19,1.284-0.235,2.019-0.132c0.734,0.103,1.629,0.353,2.569,0.558
	s1.923,0.367,2.547,0.404s0.889-0.051,1.285-0.293c0.396-0.242,0.925-0.639,1.27-0.881s0.506-0.33,0.44-0.47
	c-0.066-0.139-0.36-0.33-0.756-0.829c-0.396-0.499-0.896-1.307-1.453-2.048c-0.558-0.742-1.174-1.417-2.532-2.518
	c-1.358-1.102-3.457-2.628-5.116-3.839c-1.659-1.211-2.877-2.107-3.648-2.812c-0.771-0.705-1.094-1.219-1.277-1.975
	c-0.183-0.756-0.228-1.754-0.242-2.943c-0.014-1.189,0-2.569-0.11-3.802s-0.345-2.319-0.448-3.948
	c-0.103-1.63-0.073-3.803-0.014-5.976c0.059-2.172,0.146-4.345,0.044-6.121c-0.103-1.776-0.396-3.157-0.969-4.815
	c-0.573-1.659-1.424-3.597-2.334-4.845c-0.911-1.248-1.88-1.806-2.849-2.26c-0.969-0.456-1.938-0.808-2.76-1.043
	c-0.822-0.235-1.498-0.352-2.158-0.161c-0.661,0.191-1.307,0.69-1.659,1.262s-0.411,1.219-0.235,2.701
	c0.176,1.482,0.587,3.802,0.866,5.593c0.279,1.792,0.426,3.054,0.543,4.493c0.118,1.438,0.206,3.053,0.264,4.272
	c0.059,1.218,0.088,2.041-0.132,2.671c-0.22,0.631-0.69,1.072-1.145,1.395c-0.456,0.323-0.896,0.528-1.601,0.308
	c-0.705-0.22-1.673-0.866-2.158-1.673c-0.484-0.808-0.484-1.777-0.44-3.45s0.132-4.052,0.132-5.931s-0.088-3.259-0.249-4.36
	c-0.162-1.101-0.396-1.923-0.734-2.172c-0.338-0.25-0.778,0.073-1.424,0.323c-0.646,0.25-1.498,0.426-2.203,0.808
	c-0.705,0.382-1.262,0.969-1.629,1.703c-0.367,0.734-0.543,1.615-1.233,2.122c-0.69,0.506-1.894,0.639-2.752,0.426
	c-0.859-0.213-1.373-0.771-1.535-1.578c-0.161-0.808,0.03-1.864,0.492-2.569c0.462-0.705,1.196-1.057,1.578-1.542
	c0.381-0.484,0.411-1.101,0.22-1.644c-0.191-0.543-0.602-1.013-1.263-1.527c-0.661-0.514-1.57-1.071-2.239-1.541
	c-0.668-0.471-1.094-0.852-1.409-1.469s-0.521-1.468-0.932-1.916c-0.412-0.448-1.028-0.492-1.586-0.293
	c-0.558,0.198-1.057,0.638-1.497,1.409c-0.441,0.771-0.823,1.872-1.219,2.503c-0.396,0.631-0.807,0.792-1.35,0.69
	c-0.543-0.103-1.219-0.47-1.681-1.189c-0.462-0.719-0.712-1.791-0.536-2.649c0.176-0.859,0.778-1.505,1.593-1.967
	s1.842-0.742,2.246-1.526c0.404-0.786,0.183-2.077-0.698-2.51c-0.881-0.433-2.422-0.007-4.162,0.61
	c-1.74,0.616-3.677,1.423-5.226,2.077c-1.549,0.653-2.708,1.152-3.685,1.46s-1.769,0.426-2.65,0.866s-1.85,1.204-2.936,2.114
	c-1.086,0.91-2.291,1.967-3.186,3.097c-0.896,1.13-1.483,2.334-2.056,3.303c-0.572,0.969-1.13,1.703-1.335,2.364
	c-0.206,0.661-0.059,1.248-0.015,1.762c0.044,0.514-0.015,0.954-0.235,1.468c-0.22,0.514-0.602,1.101-0.689,1.644
	c-0.088,0.543,0.117,1.042,0.528,1.601c0.411,0.558,1.028,1.174,1.762,1.424c0.734,0.249,1.585,0.132,3.17,0.103
	s3.905,0.029,5.359,0.177c1.453,0.146,2.04,0.381,2.305,0.836c0.264,0.455,0.206,1.13,0,1.717c-0.206,0.587-0.558,1.086-1.086,1.336
	c-0.529,0.25-1.233,0.25-1.761,0.25c-0.529,0-0.881,0-1.688-0.074c-0.808-0.073-2.07-0.22-3.127-0.162
	c-1.057,0.059-1.909,0.323-2.716,0.734c-0.808,0.411-1.571,0.969-1.806,1.453c-0.235,0.485,0.058,0.896,0.66,1.498
	c0.602,0.602,1.512,1.395,2.261,1.615c0.749,0.22,1.336-0.132,1.997-0.161c0.66-0.03,1.395,0.264,1.938,0.719
	c0.543,0.455,0.896,1.072,1.615,1.395s1.806,0.352,2.76,0.367c0.955,0.015,1.776,0.015,2.76,0.44s2.129,1.277,3.112,1.938
	c0.984,0.661,1.806,1.13,2.79,1.35c0.983,0.221,2.129,0.191,2.892,0.529c0.764,0.337,1.146,1.042,1.835,2.1
	c0.69,1.057,1.688,2.466,1.776,3.185c0.088,0.72-0.734,0.749-1.938,1.013c-1.204,0.264-2.79,0.763-3.832,0.631
	c-1.042-0.132-1.542-0.896-2.172-1.571c-0.631-0.675-1.395-1.263-2.305-1.498s-1.967-0.118-2.818-0.162
	c-0.852-0.044-1.498-0.25-2.364-0.499s-1.953-0.543-3.01-0.587c-1.057-0.044-2.084,0.161-2.995,0.279
	c-0.91,0.117-1.703,0.147-2.319,0.396s-1.057,0.719-1.703,1.409c-0.646,0.69-1.498,1.6-1.791,2.591
	c-0.294,0.991-0.03,2.063,0.264,2.951c0.293,0.888,0.616,1.592,1.101,2.165c0.485,0.572,1.131,1.013,1.879,1.497
	s1.6,1.013,2.452,1.468s1.703,0.837,2.496,0.896c0.793,0.058,1.527-0.206,1.967,0s0.587,0.881,0.939,1.527
	c0.353,0.646,0.91,1.262,1.204,1.776c0.294,0.513,0.323,0.925,0.279,1.497c-0.044,0.572-0.162,1.307-0.191,2.055
	c-0.029,0.749,0.029,1.512,0.404,2.261C261.769,205.739,262.458,206.472,263.222,207.088L263.222,207.088z M324.211,169.797
	c1.496,1.755,2.318,2.783,3.125,3.693c0.808,0.91,1.6,1.703,2.202,2.583s1.013,1.85,1.512,2.892s1.086,2.158,1.732,2.76
	c0.646,0.602,1.35,0.69,2.334,0.675s2.246-0.132,3.054-0.44c0.808-0.309,1.16-0.808,1.424-1.41c0.264-0.602,0.44-1.307,0.47-2.099
	c0.029-0.793-0.088-1.674,0.088-2.144c0.176-0.47,0.646-0.529,1.218-0.572c0.573-0.044,1.248-0.074,1.659-0.323
	s0.558-0.719,0.749-1.674c0.191-0.954,0.425-2.393,0.484-4.184c0.059-1.791-0.059-3.935-0.117-5.476
	c-0.059-1.542-0.059-2.48-0.235-3.156s-0.528-1.087-1.16-1.644c-0.631-0.558-1.542-1.263-1.982-1.792s-0.411-0.881-0.147-1.351
	s0.764-1.057,1.263-1.659c0.5-0.602,0.998-1.218,1.277-1.864c0.279-0.646,0.337-1.321,0.293-1.967s-0.19-1.263-0.558-1.879
	c-0.367-0.617-0.954-1.233-1.525-1.668c-0.571-0.434-1.126-0.686-2.021-0.826c-0.894-0.141-2.127-0.17-3.332-0.244
	c-1.204-0.073-2.378-0.191-3.435-0.646c-1.057-0.455-1.997-1.248-2.774-1.776c-0.778-0.528-1.395-0.792-1.865-0.749
	s-0.792,0.396-1.027,0.866s-0.382,1.057-0.411,1.703c-0.029,0.646,0.059,1.35,0.206,2.084c0.147,0.734,0.352,1.498,0.675,2.114
	c0.323,0.616,0.763,1.085,1.38,1.497c0.617,0.411,1.409,0.763,1.967,1.086c0.558,0.323,0.88,0.616,1.042,1.027
	s0.162,0.939,0.191,1.483c0.029,0.543,0.088,1.101-0.162,1.673c-0.25,0.573-0.807,1.16-1.467,1.82
	c-0.661,0.661-1.424,1.395-2.012,1.454s-0.998-0.558-1.542-1.174c-0.543-0.617-1.218-1.233-1.85-1.542s-1.218-0.308-1.718-0.69
	c-0.499-0.382-0.91-1.146-1.218-1.718c-0.309-0.572-0.514-0.954-0.807-0.925c-0.294,0.029-0.676,0.47-1.189,0.954
	c-0.514,0.484-1.16,1.013-1.483,1.468c-0.323,0.455-0.323,0.837-0.337,1.777s-0.044,2.437-0.015,3.406
	c0.029,0.969,0.117,1.409,1.246,2.871C320.545,165.558,322.715,168.042,324.211,169.797L324.211,169.797z M329.371,212.004
	c0.146-0.47,0.411-0.896,0.888-1.248c0.477-0.352,1.167-0.631,1.593-0.939s0.587-0.646,0.844-1.387
	c0.257-0.742,0.609-1.886,1.013-2.687c0.403-0.8,0.859-1.255,1.571-2.004c0.712-0.749,1.681-1.791,2.342-2.371
	c0.66-0.58,1.013-0.697,1.879-0.639c0.866,0.059,2.246,0.293,3.134,0.565c0.888,0.271,1.285,0.58,1.571,0.896
	c0.286,0.315,0.462,0.638,0.514,1.211c0.052,0.573-0.021,1.395-0.08,1.989c-0.059,0.595-0.104,0.962,0.168,1.402
	c0.271,0.44,0.858,0.954,1.204,1.306c0.345,0.353,0.448,0.543,0.837,0.955s1.064,1.042,1.563,1.622s0.822,1.108,1.101,1.644
	c0.279,0.536,0.514,1.079,0.573,1.857c0.058,0.778-0.059,1.791-0.206,2.489c-0.146,0.697-0.323,1.079-0.858,1.108
	c-0.536,0.03-1.432-0.293-2.657-0.374c-1.226-0.081-2.782,0.081-4.037,0.162c-1.255,0.081-2.21,0.081-3.024-0.286
	c-0.815-0.367-1.49-1.101-2.158-1.607c-0.668-0.507-1.329-0.786-2.106-0.911c-0.778-0.125-1.674-0.095-2.599-0.037
	s-1.879,0.147-2.429-0.051c-0.551-0.198-0.698-0.683-0.756-1.182S329.224,212.474,329.371,212.004L329.371,212.004z
	 M406.144,284.679c1.387,0.359,2.767,0.33,3.662,0.418c0.896,0.088,1.308,0.293,1.366,0.807c0.059,0.514-0.235,1.336-0.147,2.012
	c0.089,0.675,0.558,1.204,1.541,1.453c0.984,0.25,2.481,0.22,3.421-0.029s1.321-0.719,2.158-1.791s2.129-2.745,2.907-3.935
	c0.777-1.189,1.042-1.894,1.145-2.774s0.044-1.938-0.044-2.995c-0.088-1.057-0.205-2.114,0.044-2.745
	c0.25-0.632,0.866-0.837,1.38-0.808s0.926,0.293,1.365,0.91c0.44,0.616,0.91,1.585,1.747,2.173c0.837,0.587,2.041,0.792,3.494,1.13
	c1.453,0.337,3.156,0.807,5.035,1.057c1.88,0.25,3.935,0.279,5.168,0.132s1.644-0.47,2.04-0.763c0.396-0.294,0.778-0.558,0.94-1.102
	c0.161-0.543,0.103-1.365,0.103-2.275s0.059-1.909-0.103-2.511c-0.162-0.602-0.544-0.807-1.087-1.365s-1.248-1.468-1.835-1.835
	s-1.057-0.191-1.703-0.279c-0.646-0.088-1.468-0.44-2.818-1.585c-1.351-1.146-3.229-3.083-4.478-4.36
	c-1.248-1.277-1.864-1.894-2.423-2.269c-0.558-0.375-1.057-0.506-1.71-0.528c-0.652-0.022-1.46,0.065-2.07,0.059
	c-0.608-0.008-1.02-0.11-1.409-0.595c-0.389-0.484-0.756-1.351-1.291-1.747c-0.536-0.396-1.241-0.323-2.151-0.337
	c-0.91-0.015-2.025-0.118-3.303-0.154s-2.716-0.007-3.545-0.404c-0.83-0.396-1.05-1.218-1.505-2.194
	c-0.455-0.977-1.146-2.107-1.784-2.915s-1.226-1.292-1.762-1.622c-0.536-0.331-1.021-0.507-1.453-0.58
	c-0.433-0.074-0.814-0.044-0.954,0.337c-0.14,0.382-0.037,1.116,0.052,1.93c0.088,0.815,0.161,1.71,0.014,3.076
	c-0.146,1.365-0.514,3.201-0.939,4.97c-0.425,1.769-0.91,3.473-1.138,4.588s-0.198,1.644,0.066,2.584
	c0.264,0.939,0.764,2.29,0.983,3.479c0.221,1.189,0.162,2.217-0.073,3.186s-0.646,1.879-1.204,2.995s-1.262,2.437-1.6,3.362
	s-0.309,1.454,0.403,2.092C403.361,283.571,404.756,284.319,406.144,284.679L406.144,284.679z M433.119,288.488
	c-1.365,0.572-2.804,1.394-4.654,2.114c-1.85,0.719-4.11,1.336-5.402,2.158c-1.292,0.822-1.614,1.85-1.6,3.259
	c0.015,1.409,0.367,3.2,0.896,4.448c0.528,1.248,1.232,1.953,2.202,2.584c0.969,0.631,2.202,1.188,3.127,1.262
	s1.541-0.338,2.363-1.145s1.85-2.011,2.54-3.186c0.689-1.174,1.042-2.319,1.82-2.907c0.777-0.587,1.981-0.617,2.833-0.807
	c0.852-0.191,1.351-0.543,1.791-1.307c0.44-0.763,0.822-1.938,0.969-3.2c0.146-1.263,0.059-2.614-0.47-3.377
	c-0.528-0.764-1.497-0.94-2.628-0.866C435.776,287.593,434.484,287.916,433.119,288.488L433.119,288.488z M455.125,274.424
	c-0.206,0.778-0.235,1.923-0.367,2.892c-0.132,0.969-0.367,1.762,0.176,2.496c0.544,0.734,1.865,1.409,3.187,1.542
	c1.321,0.132,2.642-0.279,3.625-1.028c0.984-0.749,1.63-1.835,1.63-2.848c0-1.013-0.646-1.953-1.482-2.452
	c-0.837-0.5-1.864-0.559-2.863-0.852c-0.998-0.293-1.967-0.822-2.642-0.881C455.712,273.235,455.33,273.646,455.125,274.424
	L455.125,274.424z M453.319,292.305c-0.778-0.132-1.776-0.25-2.555-0.088s-1.336,0.602-1.908,1.101
	c-0.572,0.499-1.16,1.057-1.263,1.776c-0.103,0.72,0.279,1.601,0.499,2.511c0.221,0.91,0.279,1.85,0.323,2.642
	c0.044,0.793,0.073,1.439,0.484,1.997c0.411,0.558,1.204,1.027,2.158,1.468s2.069,0.852,2.804,0.91
	c0.734,0.059,1.086-0.235,1.512-0.969s0.926-1.908,1.058-3.347c0.132-1.438-0.103-3.142-0.367-4.448s-0.558-2.217-0.983-2.745
	S454.098,292.437,453.319,292.305L453.319,292.305z M672.982,387.038c0.176,3.111,0.293,6.987,0.676,9.953
	c0.381,2.966,1.027,5.021,1.556,8.045c0.528,3.023,0.939,7.018,1.674,9.483c0.733,2.467,1.791,3.406,3.288,3.758
	c1.497,0.353,3.436,0.118,5.108-0.616c1.674-0.734,3.083-1.968,4.375-3.436s2.466-3.171,3.641-4.228s2.349-1.468,3.7-1.615
	c1.351-0.146,2.877-0.029,3.846-0.293c0.969-0.265,1.38-0.91,1.762-1.615s0.734-1.468,1.438-2.319
	c0.705-0.852,1.762-1.791,2.789-2.849c1.028-1.057,2.026-2.23,3.172-2.994c1.145-0.764,2.437-1.116,3.347-0.969
	c0.91,0.146,1.438,0.792,1.321,1.996s-0.881,2.966-1.497,4.375c-0.617,1.409-1.087,2.466-0.382,3.229
	c0.704,0.764,2.584,1.233,3.875,0.969c1.292-0.264,1.997-1.263,2.408-2.672s0.528-3.229,0.205-5.373
	c-0.322-2.144-1.086-4.609-1.409-6.605c-0.322-1.997-0.205-3.523,0.588-3.965c0.792-0.44,2.261,0.206,3.493,0.705
	c1.233,0.499,2.231,0.852,2.643,1.996c0.411,1.146,0.235,3.083,0.265,4.435c0.029,1.35,0.264,2.113,0.881,2.613
	c0.616,0.498,1.614,0.733,2.143,0.176c0.529-0.559,0.588-1.908,1.233-2.496c0.646-0.587,1.88-0.411,2.991-0.234
	c1.111,0.176,2.102,0.352,2.597-0.118s0.495-1.585,0.294-3.023c-0.202-1.439-0.604-3.2-1.306-4.258
	c-0.7-1.057-1.698-1.409-1.698-2.144c0-0.733,0.998-1.85,1.292-2.936c0.293-1.087-0.118-2.144-0.852-2.937
	c-0.734-0.792-1.791-1.321-2.32-0.792c-0.528,0.528-0.528,2.113-0.852,3.023c-0.322,0.91-0.969,1.146-1.468,0.646
	s-0.852-1.732-1.497-2.643s-1.585-1.497-2.29-1.527c-0.705-0.029-1.174,0.5-1.586,1.381c-0.411,0.881-0.763,2.114-1.438,2.407
	c-0.675,0.293-1.674-0.353-1.85-1.409c-0.177-1.058,0.47-2.525,1.468-3.935c0.999-1.409,2.35-2.76,2.114-3.494
	c-0.234-0.734-2.056-0.852-3.641-0.705c-1.586,0.147-2.937,0.559-3.935,1.175c-0.998,0.617-1.645,1.438-2.173,1.263
	c-0.528-0.177-0.939-1.351-1.351-2.555c-0.411-1.203-0.822-2.437-0.852-3.729s0.323-2.643-0.47-3.171
	c-0.792-0.528-2.73-0.235-4.14,0.176s-2.29,0.94-3.229,1.762c-0.939,0.822-1.938,1.938-2.584,2.79s-0.939,1.438-1.409,2.23
	s-1.116,1.791-2.026,2.496c-0.91,0.704-2.084,1.116-3.376,1.438c-1.292,0.323-2.701,0.558-2.818-0.029
	c-0.118-0.587,1.057-1.996,1.35-3.317c0.294-1.321-0.293-2.555-1.761-3.406c-1.469-0.852-3.817-1.321-5.051-0.852
	c-1.232,0.47-1.351,1.879-1.614,2.937c-0.265,1.057-0.676,1.762-1.586,1.879s-2.319-0.353-3.229-1.057
	c-0.91-0.705-1.321-1.645-0.852-2.761c0.47-1.115,1.82-2.407,2.525-4.286c0.704-1.879,0.763-4.346,0.587-7.193
	s-0.587-6.078-1.438-7.164c-0.852-1.087-2.144-0.029-3.317,2.143c-1.175,2.173-2.231,5.462-3.113,8.456
	c-0.88,2.995-1.585,5.696-1.702,8.31s0.352,5.139,0.704,7.575S672.807,383.926,672.982,387.038L672.982,387.038z M623.893,414.24
	c0.322-0.631,0.822-1.395,1.879-2.202s2.672-1.659,4.213-2.246c1.542-0.587,3.01-0.91,4.508-0.925
	c1.497-0.015,3.023,0.279,5.725,0.646c2.701,0.368,6.577,0.808,8.838,1.425c2.261,0.616,2.906,1.409,2.774,2.04
	c-0.132,0.632-1.042,1.102-2.701,1.615c-1.658,0.514-4.066,1.071-6.415,1.644c-2.349,0.573-4.64,1.16-6.02,0.983
	c-1.38-0.176-1.85-1.115-3.053-1.497c-1.204-0.382-3.143-0.205-4.992-0.088s-3.611,0.176-4.419-0.044
	C623.423,415.371,623.569,414.871,623.893,414.24L623.893,414.24z M674.701,428.656c-0.748,0.777-0.896,2.716-1.263,4.434
	c-0.366,1.717-0.954,3.215-1.291,4.712c-0.338,1.497-0.426,2.995-0.294,4.301c0.132,1.308,0.484,2.423,1.57,3.143
	c1.087,0.719,2.907,1.042,4.786,1.409s3.817,0.778,4.991,0.646c1.175-0.133,1.586-0.808,2.202-2.408s1.438-4.125,1.63-5.843
	c0.19-1.718-0.25-2.628-1.146-3.215s-2.246-0.852-3.054-1.058c-0.807-0.205-1.071-0.352-1.395-0.675s-0.704-0.822-1.027-1.307
	s-0.587-0.954-0.954-1.645c-0.367-0.689-0.837-1.6-1.747-2.246C676.801,428.26,675.45,427.878,674.701,428.656L674.701,428.656z
	 M643.315,444.342c-0.484,0.419-0.309,1.079-0.037,1.872s0.639,1.718,1.255,2.767c0.617,1.051,1.482,2.225,2.254,2.93
	c0.771,0.704,1.445,0.939,2.576,1.145c1.13,0.206,2.716,0.382,4.565,0.323s3.964-0.353,5.594-0.646
	c1.63-0.294,2.774-0.588,3.919-1.204c1.146-0.617,2.291-1.556,2.878-2.525c0.587-0.969,0.616-1.967,0.499-2.804
	s-0.382-1.512-0.896-1.864s-1.277-0.382-1.835-0.081c-0.558,0.302-0.91,0.933-1.365,1.469c-0.455,0.535-1.013,0.976-2.129,1.27
	c-1.116,0.293-2.789,0.44-4.286,0.705c-1.498,0.264-2.819,0.646-3.803,0.572c-0.983-0.074-1.63-0.603-1.952-1.153
	c-0.323-0.55-0.323-1.122-1.014-1.717c-0.689-0.595-2.069-1.211-3.332-1.432C644.944,443.748,643.8,443.924,643.315,444.342
	L643.315,444.342z M669.828,470.789c-0.866,0.088-2.129,0.44-3.024,0.969c-0.896,0.529-1.424,1.233-2.07,2.217
	c-0.646,0.984-1.409,2.246-2.113,3.436c-0.705,1.189-1.351,2.305-1.718,3.347c-0.367,1.043-0.455,2.012-0.353,3.392
	s0.396,3.171,0.294,4.331c-0.103,1.159-0.603,1.688-1.233,2.113c-0.631,0.426-1.395,0.749-1.851,1.425
	c-0.454,0.675-0.602,1.702-0.925,2.422c-0.322,0.72-0.821,1.131-2.084,1.542s-3.288,0.821-4.609,0.865s-1.938-0.278-2.922-1.042
	s-2.334-1.967-3.054-3.039c-0.719-1.071-0.807-2.011-0.821-3.229c-0.015-1.218,0.044-2.716,0.293-4.184
	c0.25-1.468,0.69-2.907,1.16-4.11c0.47-1.204,0.969-2.173,1.585-3.112c0.617-0.94,1.351-1.85,2.467-2.643
	c1.115-0.793,2.613-1.469,4.257-2.335c1.645-0.866,3.436-1.923,4.801-2.73s2.305-1.365,2.716-2.158
	c0.411-0.792,0.294-1.819-0.322-2.157c-0.617-0.338-1.733,0.015-2.79,0.484s-2.055,1.057-2.906,1.541
	c-0.852,0.485-1.557,0.866-2.07,0.866s-0.837-0.381-0.998-1.101s-0.161-1.776,0.353-2.995s1.541-2.598,2.716-3.993
	c1.174-1.395,2.495-2.804,3.831-3.743s2.687-1.409,4.229-1.776c1.541-0.367,3.273-0.632,4.507-0.984
	c1.232-0.353,1.967-0.792,2.73-1.453c0.764-0.66,1.556-1.541,2.378-1.571c0.822-0.028,1.674,0.793,2.379,1.337
	c0.704,0.543,1.262,0.808,1.834,0.646c0.573-0.161,1.16-0.749,1.776-1.086c0.617-0.338,1.263-0.426,2.275-0.426
	c1.014,0,2.394,0.088,3.274,0.396c0.881,0.308,1.263,0.837,1.409,1.365s0.059,1.057-0.558,1.6c-0.617,0.543-1.762,1.101-2.701,1.674
	c-0.94,0.572-1.674,1.159-2.144,1.791c-0.47,0.631-0.675,1.307-0.969,2.172c-0.294,0.867-0.676,1.924-1.336,3.01
	c-0.661,1.087-1.601,2.202-2.394,3.186c-0.792,0.984-1.438,1.836-1.996,2.481c-0.558,0.646-1.027,1.086-1.498,1.219
	C671.164,470.877,670.694,470.701,669.828,470.789L669.828,470.789z M66.058,357.896c-0.044-1.688-0.162-3.039,0.029-4.082
	c0.191-1.042,0.69-1.775,1.16-2.172s0.91-0.455,1.497-0.47c0.587-0.015,1.321,0.015,2.466-0.837s2.701-2.584,3.479-3.891
	c0.778-1.306,0.778-2.188,0.485-2.687c-0.294-0.499-0.881-0.616-1.586-0.925c-0.705-0.308-1.527-0.808-2.261-1.219
	c-0.734-0.41-1.38-0.733-2.173-1.585c-0.793-0.852-1.732-2.231-2.437-3.215s-1.174-1.571-1.659-1.806
	c-0.484-0.235-0.984-0.117-1.718,0.19c-0.734,0.309-1.703,0.808-2.26,1.424c-0.559,0.617-0.705,1.351-0.646,3.112
	s0.323,4.552,0.323,6.195c0,1.645-0.265,2.144-0.808,2.599c-0.543,0.455-1.365,0.866-1.762,1.277s-0.367,0.822-0.206,1.38
	c0.162,0.558,0.456,1.263,0.896,2.055c0.44,0.793,1.027,1.674,1.379,2.775c0.353,1.101,0.47,2.422,0.43,4.008
	c-0.041,1.585-0.238,3.435-0.279,5.277s0.077,3.678,1.002,3.957c0.925,0.278,2.657-0.999,3.564-2.195
	c0.906-1.196,0.987-2.313,1.042-3.883C66.073,361.609,66.102,359.584,66.058,357.896L66.058,357.896z M76.584,398.369
	c1.644,0.587,4.404,3.759,7.428,7.018c3.024,3.259,6.313,6.606,8.192,8.867c1.878,2.261,2.349,3.436,2.613,4.756
	c0.264,1.321,0.323,2.789,0.088,4.141c-0.235,1.35-0.763,2.583-0.939,3.552c-0.176,0.97,0,1.674,0.734,2.613
	c0.734,0.94,2.026,2.114,3.142,3.465s2.055,2.878,2.789,4.316s1.262,2.789,1.468,3.935c0.205,1.145,0.088,2.084-0.265,2.877
	c-0.352,0.793-0.939,1.438-1.908,1.967s-2.319,0.94-3.376,1.175c-1.057,0.235-1.821,0.294-2.378-0.088
	c-0.558-0.382-0.91-1.204-0.969-2.173c-0.059-0.969,0.176-2.085-0.029-2.818c-0.206-0.734-0.852-1.087-1.791-2.056
	c-0.939-0.969-2.173-2.555-3.142-4.14c-0.969-1.586-1.673-3.171-2.143-4.815s-0.705-3.347-1.115-4.492
	c-0.412-1.146-0.999-1.732-1.879-2.378c-0.881-0.646-2.055-1.351-2.73-1.968c-0.676-0.616-0.852-1.145-0.587-2.025
	c0.264-0.881,0.969-2.114,1.468-3.23c0.499-1.115,0.793-2.113,0.47-3.229c-0.323-1.115-1.262-2.349-2.378-3.699
	s-2.408-2.818-3.347-4.199c-0.939-1.38-1.527-2.671-1.556-4.315C74.411,399.778,74.939,397.782,76.584,398.369z"/>
</svg>
