<svg data-name="Calque 1" xmlns="http://www.w3.org/2000/svg" viewBox="0 0 198 90" width="198" height="90"><title>logo</title><path fill="#e01e2b" d="M0 0h198v90H0z" data-name="Layer 2"/><path d="M0 3.6h198v82.8H0z" fill="none"/><path d="M24.5 23.1H24a4.25 4.25 0 0 0-4.6 3.8V46a4.25 4.25 0 0 0 3.8 4.6h1.4a4.25 4.25 0 0 0 4.6-3.8v-7.7h-3.8v6.7c0 .9-.3 1.1-1 1.1s-1-.3-1-1.1V28.1c0-.9.3-1.1 1-1.1s1 .3 1 1.1v6.5h3.8v-6.8a4.25 4.25 0 0 0-3.8-4.6 2.77 2.77 0 0 0-.9-.1zm26.6 24.2h-.5l-4.1-25.7h-3.7v43h3.7V43.3h.5l4.1 25.4h3.8V28.5h-3.7v18.8zm23.7-29.1h-5.7v42.2h5.7a4.25 4.25 0 0 0 4.6-3.8V22.8a4.1 4.1 0 0 0-3.7-4.6zm.6 37.1c0 .9-.3 1.1-1.1 1.1h-1.1V22.2h1.1c.9 0 1.1.3 1.1 1.1zM32 18.2l-2 37.3h3.7l.3-5.1h3l.4 9.7h4L39 18.2zm2.1 28.3l1-22.8h.6l1 22.8zm48.5-23.2l-1.8 31.2h3.5l.4-8H87l.2 3.9h3.6l-1.6-27.1zm2.2 19.3l.6-13.9h.6l.7 13.9zM58.5 23.3l-2.4 48.5h3.7l.5-11.4h3.1l.1 5.1h4l-2-42.2zm2 33.1l1.1-27.7h.6l1 27.7zm44.8-33.1l-.9-.3.1-1.6-1.5.5-.5-.8-2 2.8h-.2l.2-4.7-.9.3-.9-1.3-.9 1.3-.9-.3.2 4.7h-.2l-2-2.8-.5.8-1.5-.5.1 1.6-1 .3 3.4 4-.8 1.1h3.2v2.2h1.6v-2.2h3.2l-.8-1.1zm36.4 37.1h2.4l-2-10.3h-4l-2 10.3h2.4l.5-2.4h2.3zm-2.4-4.4l.8-3.9.8 3.9zm-16.1-15.3h3.9V44a3.7 3.7 0 1 1-7.4 0v-4.4a3.42 3.42 0 0 1 3.4-3.3h.3a3.24 3.24 0 0 1 3.6 3.1v.1h-2.3a1.15 1.15 0 0 0-1.3-1 1.11 1.11 0 0 0-1.3 1.1v4.2a1.11 1.11 0 0 0 1.1 1.3h.2a1.16 1.16 0 0 0 1.3-1.1v-1.3h-1.5zm51.5 0h3.9V44a3.72 3.72 0 0 1-7.4 0v-4.4a3.42 3.42 0 0 1 3.4-3.3h.3a3.24 3.24 0 0 1 3.6 3.1v.1h-2.4a1.15 1.15 0 0 0-1.3-1 1.11 1.11 0 0 0-1.3 1.1v4.2a1.11 1.11 0 0 0 1.1 1.3h.2a1.16 1.16 0 0 0 1.3-1.1v-1.3h-1.5zm-49.2-17.4v2.1h-3.4V27h2.6v2.1h-2.6v4.4h-2.2V23.3zm1 7.4v-4.4a3.7 3.7 0 0 1 7.4 0v4.3a3.7 3.7 0 0 1-7.4.1zm4.9-.2v-3.9a1.3 1.3 0 0 0-2.6-.2v4.2a1.3 1.3 0 0 0 2.6.2q.15-.3 0-.3zm2.7 16.6h-5.5V36.7h2.4V45h3.2zm.7-3.1v-4.4a3.7 3.7 0 1 1 7.4 0v4.3a3.7 3.7 0 1 1-7.4 0zm5-.2v-3.9a1.3 1.3 0 0 0-2.6 0v3.9a1.3 1.3 0 0 0 2.6 0zm17.1-7.1L154.7 47h-3.1l-1.7-8.4-1.7 8.4H145l-2.2-10.3h2.5l1.3 7.5 1.3-7.5h3.9l1.3 7.4 1.3-7.4zm3.2 0V47h-2.4V36.7zm9.9 0V47h-2.7l-3.2-6.1v6.2h-2.4V36.7h2.7l3.2 6.6v-6.7zM122.3 50v3.9h2.4V50h2.4v10.3h-2.4V56h-2.4v4.3h-2.4V50.1zm12.9 0v2.1h-4.3v1.7h3.3v2.1h-3.3v2.4h4.3v2.2h-6.6V50.1zm17.6 0h7.4v2.1h-2.5v8.2h-2.4v-8.2h-2.5zm11.6 6.8l-2-1.5a3.28 3.28 0 0 1-1.5-2.7c0-1.8 1.2-2.8 3.2-2.8a2.93 2.93 0 0 1 3.3 2.5v1.1H165V53c0-.7-.2-1.2-1-1.2a.71.71 0 0 0-.8.7c0 .5.1.6.8 1.1l2.1 1.5a2.85 2.85 0 0 1 1.4 2.5 3 3 0 0 1-2.9 3h-.5a3.17 3.17 0 0 1-3.5-2.9v-1.2h2.4v.6c0 1 .4 1.5 1.1 1.5s1-.3 1-.8c0-.3 0-.5-.7-1zm-16.7-1h1.2c2 0 3.2-1.1 3.2-2.8v-.2c0-1.7-1.2-2.8-3.1-2.8h-3.7v10.3h2.4v-1.8l1.8 1.9h3.1zm1.2-2.2h-1.4v-1.5h1.4a.71.71 0 0 1 .8.7v.2c0 .4-.3.6-.8.6zM137.8 29h1.1c2 0 3.2-1 3.2-2.8V26c0-1.7-1.2-2.8-3.1-2.8h-3.7v10.3h2.4v-1.8l1.8 1.9h3.1zm1.2-2.1h-1.4v-1.5h1.4a.71.71 0 0 1 .8.7v.2c0 .4-.3.6-.8.6z" fill="#fff"/></svg>