<svg xmlns="http://www.w3.org/2000/svg" viewBox="0 0 128.592 130.456">
  <defs>
    <style>
      .cls-1, .cls-2 {
        fill: #fab80e;
      }

      .cls-1 {
        opacity: 0.345;
      }

      .cls-2 {
        opacity: 0.281;
      }

      .cls-3 {
        fill: none;
        stroke: #021f3c;
        stroke-miterlimit: 10;
        stroke-width: 2px;
      }

      .cls-4 {
        fill: #021f3c;
      }

      .cls-5 {
        fill: #fff;
      }
    </style>
  </defs>
  <title>Recurso 39</title>
  <g id="Capa_2" data-name="Capa 2">
    <g id="Capa_2-2" data-name="Capa 2">
      <g>
        <path id="fondo-izq" class="cls-1" d="M101.337,90.811c-20.15,15-33.55,21-46.61,25s-31.61,12-35.96-4-6.33-65-6.33-82.98,2.44-37.84,38.53-24.43,75.64,25.24,77.4,40.77S121.487,75.811,101.337,90.811Z"/>
        <path id="fondo-der" class="cls-2" d="M119.607,55.2c-3.64,24.85-8.87,38.57-15.28,50.63s-13.86,30.84-28.26,22.6-50.43-41.49-63.15-54.2-25.03-28.48,9.97-44.52,71.33-35.64,83.56-25.9S123.247,30.341,119.607,55.2Z"/>
      </g>
      <line class="cls-3" x1="85.517" y1="66.008" x2="101.334" y2="90.812"/>
      <line class="cls-3" x1="27.684" y1="88.355" x2="42.975" y2="66.008"/>
      <polygon id="car-1" class="cls-4" points="63.531 68.065 63.748 62.516 64.537 62.509 64.711 68.056 63.531 68.065"/>
      <polygon id="car-2" class="cls-4" points="63.049 84.71 63.357 73.614 64.897 73.607 65.254 84.7 63.049 84.71"/>
      <polygon id="car-3" class="cls-4" points="62.351 102.543 63.002 91.449 65.208 91.44 65.541 102.535 62.351 102.543"/>
      <path class="cls-5" d="M86.976,45.723a2.5,2.5,0,0,0-2.494-2.495H81.5L79.335,37.6a6.166,6.166,0,0,0-3.594-3.288S72.008,33.249,64.3,33.249s-11.444,1.067-11.444,1.067A6.169,6.169,0,0,0,49.259,37.6L47.1,43.228H44.112a2.5,2.5,0,0,0,0,4.99h1.064l-.767,2a17.544,17.544,0,0,0-.977,5.261V67.269a3.175,3.175,0,0,0,6.35,0V65.454h29.03v1.815a3.175,3.175,0,0,0,6.35,0V55.475a17.575,17.575,0,0,0-.977-5.261l-.768-2h1.065A2.5,2.5,0,0,0,86.976,45.723Zm-37.334.737,2.548-6.916a1.4,1.4,0,0,1,1.221-.851H75.183a1.4,1.4,0,0,1,1.221.85l2.548,6.916a.593.593,0,0,1-.594.852H50.236A.592.592,0,0,1,49.642,46.46Zm-.087,11.283a2.495,2.495,0,1,1,2.495-2.494A2.495,2.495,0,0,1,49.555,57.743Zm29.484,0a2.495,2.495,0,1,1,2.494-2.494A2.494,2.494,0,0,1,79.039,57.743Z"/>
      <path id="coche" class="cls-3" d="M86.976,45.723a2.5,2.5,0,0,0-2.494-2.495H81.5L79.335,37.6a6.166,6.166,0,0,0-3.594-3.288S72.008,33.249,64.3,33.249s-11.444,1.067-11.444,1.067A6.169,6.169,0,0,0,49.259,37.6L47.1,43.228H44.112a2.5,2.5,0,0,0,0,4.99h1.064l-.767,2a17.544,17.544,0,0,0-.977,5.261V67.269a3.175,3.175,0,0,0,6.35,0V65.454h29.03v1.815a3.175,3.175,0,0,0,6.35,0V55.475a17.575,17.575,0,0,0-.977-5.261l-.768-2h1.065A2.5,2.5,0,0,0,86.976,45.723Zm-37.334.737,2.548-6.916a1.4,1.4,0,0,1,1.221-.851H75.183a1.4,1.4,0,0,1,1.221.85l2.548,6.916a.593.593,0,0,1-.594.852H50.236A.592.592,0,0,1,49.642,46.46Zm-.087,11.283a2.495,2.495,0,1,1,2.495-2.494A2.495,2.495,0,0,1,49.555,57.743Zm29.484,0a2.495,2.495,0,1,1,2.494-2.494A2.494,2.494,0,0,1,79.039,57.743Z"/>
    </g>
  </g>
</svg>
