<svg xmlns="http://www.w3.org/2000/svg" viewBox="0 0 133.043 130.456">
  <defs>
    <style>
      .cls-1, .cls-2 {
        fill: #fab80e;
      }

      .cls-1 {
        opacity: 0.345;
      }

      .cls-2 {
        opacity: 0.281;
      }

      .cls-3 {
        fill: #fff;
      }

      .cls-4 {
        fill: #021f3c;
      }
    </style>
  </defs>
  <title>Recurso 30</title>
  <g id="Capa_2" data-name="Capa 2">
    <g id="Capa_2-2" data-name="Capa 2">
      <g>
        <path id="fondo-izq" class="cls-1" d="M103.562,90.811c-20.15,15-33.55,21-46.61,25s-31.61,12-35.96-4-6.33-65-6.33-82.98S17.1-9.009,53.192,4.4s75.64,25.24,77.4,40.77S123.712,75.811,103.562,90.811Z"/>
        <path id="fondo-der" class="cls-2" d="M121.832,55.2c-3.64,24.85-8.87,38.57-15.28,50.63s-13.86,30.84-28.26,22.6-50.43-41.49-63.15-54.2-25.03-28.48,9.97-44.52,71.33-35.64,83.56-25.9S125.472,30.341,121.832,55.2Z"/>
      </g>
      <path id="relleno-plane" class="cls-3" d="M129.454,54.107,79.211,57.128a1.49,1.49,0,0,0-.385.08,15.8,15.8,0,0,0-7-9.609H82.035a1.5,1.5,0,0,0,0-3H68.022V36.454a1.5,1.5,0,1,0-3,0V44.6H51.009a1.5,1.5,0,0,0,0,3H61.218a15.8,15.8,0,0,0-7,9.607,1.444,1.444,0,0,0-.344-.075L3.632,52.7a1.5,1.5,0,1,0-.263,2.988l28.976,2.556a1.487,1.487,0,0,0-.065.414v2.1a5.842,5.842,0,1,0,3,0v-2.1c0-.054-.011-.105-.016-.157l18.347,1.618c.045,0,.09.006.134.006.01,0,.019-.006.03-.006-.01.215-.032.431-.032.645a12.779,12.779,0,0,0,25.558,0c0-.213-.022-.428-.032-.642.011,0,.021,0,.031,0,.031,0,.061,0,.091,0l18.373-1.1v1.738a5.843,5.843,0,1,0,3,0V58.837L129.633,57.1a1.5,1.5,0,0,0-.179-2.994ZM36.622,66.394a2.843,2.843,0,1,1-2.842-2.842A2.845,2.845,0,0,1,36.622,66.394Zm65.485,0a2.843,2.843,0,1,1-2.843-2.842A2.846,2.846,0,0,1,102.107,66.394Z"/>
      <g id="trazado-plane">
        <path class="cls-4" d="M66.522,34.954a1.5,1.5,0,0,1,1.5,1.5V44.6H82.035a1.5,1.5,0,0,1,0,3H71.826a15.8,15.8,0,0,1,7,9.609,1.49,1.49,0,0,1,.385-.08l50.243-3.021c.034,0,.068,0,.1,0a1.5,1.5,0,0,1,.077,3l-28.869,1.736v1.918a5.842,5.842,0,1,1-3,0V59.017l-18.373,1.1c-.03,0-.06,0-.091,0-.01,0-.02,0-.031,0,.01.214.032.429.032.642a12.779,12.779,0,0,1-25.558,0c0-.214.022-.43.032-.645-.011,0-.02.006-.03.006-.044,0-.089,0-.134-.006L35.264,58.5c0,.052.016.1.016.157v2.1a5.843,5.843,0,1,1-3,0v-2.1a1.487,1.487,0,0,1,.065-.414L3.369,55.688A1.5,1.5,0,0,1,3.5,52.694c.044,0,.089,0,.134.006l50.242,4.431a1.444,1.444,0,0,1,.344.075,15.8,15.8,0,0,1,7-9.607H51.009a1.5,1.5,0,0,1,0-3H65.022V36.454a1.5,1.5,0,0,1,1.5-1.5M99.264,69.236a2.842,2.842,0,1,0-2.842-2.842,2.846,2.846,0,0,0,2.842,2.842m-65.484,0a2.842,2.842,0,1,0-2.843-2.842,2.845,2.845,0,0,0,2.843,2.842M66.522,32.954a3.5,3.5,0,0,0-3.5,3.5V42.6H51.009a3.5,3.5,0,0,0,0,7h4.874A18.532,18.532,0,0,0,52.8,55.028L3.808,50.707c-.1-.009-.208-.013-.31-.013a3.5,3.5,0,0,0-.305,6.986l26.085,2.3a7.844,7.844,0,1,0,10.056.887l12.457,1.1a14.779,14.779,0,0,0,29.457.048l12.073-.726a7.842,7.842,0,1,0,11.232-.675l25.2-1.516a3.5,3.5,0,0,0-.2-6.994c-.08,0-.159,0-.24.009l-49.06,2.949A18.517,18.517,0,0,0,77.161,49.6h4.874a3.5,3.5,0,0,0,0-7H70.022V36.454a3.5,3.5,0,0,0-3.5-3.5ZM99.264,67.236a.842.842,0,1,1,.843-.842.843.843,0,0,1-.843.842Zm-65.484,0a.842.842,0,1,1,.842-.842.844.844,0,0,1-.842.842Z"/>
      </g>
      <path class="cls-4" d="M73.747,55.07a9.592,9.592,0,0,0-14.45,0Z"/>
    </g>
  </g>
</svg>
