<svg xmlns="http://www.w3.org/2000/svg" viewBox="0 0 128.592 130.456">
  <defs>
    <style>
      .cls-1, .cls-2 {
        fill: #fab80e;
      }

      .cls-1 {
        opacity: 0.345;
      }

      .cls-2 {
        opacity: 0.281;
      }

      .cls-3 {
        fill: #fff;
      }

      .cls-4 {
        fill: #021f3c;
      }
    </style>
  </defs>
  <title>Recurso 31</title>
  <g id="Capa_2" data-name="Capa 2">
    <g id="Capa_2-2" data-name="Capa 2">
      <g>
        <path id="fondo-izq" class="cls-1" d="M101.337,90.811c-20.15,15-33.55,21-46.61,25s-31.61,12-35.96-4-6.33-65-6.33-82.98,2.44-37.84,38.53-24.43,75.64,25.24,77.4,40.77S121.487,75.811,101.337,90.811Z"/>
        <path id="fondo-der" class="cls-2" d="M119.607,55.2c-3.64,24.85-8.87,38.57-15.28,50.63s-13.86,30.84-28.26,22.6-50.43-41.49-63.15-54.2-25.03-28.48,9.97-44.52,71.33-35.64,83.56-25.9S123.247,30.341,119.607,55.2Z"/>
      </g>
      <g>
        <path class="cls-3" d="M83.142,26.507H48.885a33.508,33.508,0,0,0-3.213,1.457s-1.665,1.873-1.561,2.706-.53,53.925,0,53.66,3.947-2.659,4.682-2.763,34.354-.313,34.354-.313l.624-1.561Z"/>
        <g>
          <path class="cls-4" d="M48.788,78.515v.006c.065,0,.13-.006.2-.006Z"/>
          <path class="cls-4" d="M84.592,92.078H49.656a4.6,4.6,0,0,1-4.7-4.851v-.068a4.6,4.6,0,0,1,4.7-4.852h33.85a.82.82,0,0,0,.82-.82V26.432a.82.82,0,0,0-.82-.82H49.656c-4.359,0-6.345,2.9-6.345,5.6,0,0-.4,54.937.2,57.674a6.083,6.083,0,0,0,6.144,4.834H84.592a.821.821,0,0,0,0-1.642ZM44.953,31.212c0-1.471.99-3.959,4.7-3.959H82.685V80.666H49.656a6.065,6.065,0,0,0-4.7,2.012Z"/>
          <path class="cls-4" d="M78.691,85.15a.821.821,0,0,0-.821-.82H50.211a.821.821,0,1,0,0,1.641H77.87A.821.821,0,0,0,78.691,85.15Z"/>
          <path class="cls-4" d="M52,88.448a.821.821,0,1,0,0,1.641H72.167a.821.821,0,0,0,0-1.641Z"/>
          <polygon class="cls-4" points="69.694 57.586 66.338 57.586 66.338 47.437 61.492 47.437 61.492 57.586 58.136 57.586 63.915 63.364 69.694 57.586"/>
        </g>
      </g>
    </g>
  </g>
</svg>
