<svg xmlns="http://www.w3.org/2000/svg" viewBox="0 0 128.592 130.456">
  <defs>
    <style>
      .cls-1, .cls-2 {
        fill: #fab80e;
      }

      .cls-1 {
        opacity: 0.345;
      }

      .cls-2 {
        opacity: 0.281;
      }

      .cls-3 {
        fill: #fff;
      }

      .cls-4, .cls-5 {
        fill: #021f3c;
      }

      .cls-4 {
        fill-rule: evenodd;
      }

      .cls-6 {
        fill: none;
        stroke: #021f3c;
        stroke-linecap: round;
        stroke-linejoin: round;
        stroke-width: 2px;
      }
    </style>
  </defs>
  <title>Recurso 37</title>
  <g id="Capa_2" data-name="Capa 2">
    <g id="Capa_2-2" data-name="Capa 2">
      <g>
        <path id="fondo-izq" class="cls-1" d="M101.337,90.811c-20.15,15-33.55,21-46.61,25s-31.61,12-35.96-4-6.33-65-6.33-82.98,2.44-37.84,38.53-24.43,75.64,25.24,77.4,40.77S121.487,75.811,101.337,90.811Z"/>
        <path id="fondo-der" class="cls-2" d="M119.607,55.2c-3.64,24.85-8.87,38.57-15.28,50.63s-13.86,30.84-28.26,22.6-50.43-41.49-63.15-54.2-25.03-28.48,9.97-44.52,71.33-35.64,83.56-25.9S123.247,30.341,119.607,55.2Z"/>
      </g>
      <path class="cls-3" d="M68.439,31.47a29.53,29.53,0,1,0,20.88,8.649A29.53,29.53,0,0,0,68.439,31.47Z"/>
      <polygon class="cls-4" points="73.084 60.069 73.084 55.385 63.716 55.385 60.862 55.385 60.862 60.069 63.716 60.069 63.716 78.381 63.793 78.381 63.793 78.459 76.015 78.459 76.015 73.775 73.084 73.775 73.084 60.069"/>
      <circle class="cls-5" cx="68.439" cy="48.07" r="4.528"/>
      <path class="cls-6" d="M68.439,31.47a29.53,29.53,0,1,0,20.88,8.649A29.53,29.53,0,0,0,68.439,31.47Z"/>
    </g>
  </g>
</svg>
